<svg xmlns="http://www.w3.org/2000/svg" width="537" height="260"><g data-name="Layer 2"><g data-name="Layer 1"><path d="M12.006 10A2 2 0 0010 11.992v11.016A1.992 1.992 0 0012.006 25H17V10z" fill="#43458b"/><path d="M24 10v15h4.994A2 2 0 0031 23.008V11.992A1.992 1.992 0 0028.994 10z" fill="#e25950"/><path data-name="Rectangle-295" fill="#fcd669" d="M17 10h7v15h-7z"/><path d="M18 18v.5a2.5 2.5 0 002.5 2.5v-3zm2.5-3H23v3h-2.5z" fill="#e25950"/><path fill="#f6f9fc" d="M18 15h2.5v3H18zm2.5 6a2.5 2.5 0 002.5-2.5V18h-2.5z"/></g></g><g data-name="Layer 2"><g data-name="Layer 1"><path d="M43.005 10A2 2 0 0041 11.992v11.016A1.996 1.996 0 0043.005 25H46V10z" fill="#e25950"/><path d="M46 10v5h16v-2.995A2 2 0 0060.006 10z" fill="#24b47e"/><path fill="#f6f9fc" d="M46 15h16v5H46z"/><path data-name="Rectangle-34" d="M46 20v5h14.006A1.997 1.997 0 0062 22.995V20z" fill="#333"/><path fill="#eaeef3" d="M60.999 15H62v5h-1.001z"/></g></g><g data-name="Layer 2"><g data-name="Layer 1"><path d="M93 12a2 2 0 00-2-2H74a2 2 0 00-2 2v3h21z"/><path d="M74.491 10A2.49 2.49 0 0072 12.5V15h21v-2.5a2.505 2.505 0 00-2.491-2.5z"/><path fill="#45b2e8" d="M72 15h21v5H72z"/><path data-name="Rectangle-34" d="M72 19v3a3 3 0 003 3h15a3 3 0 003-3v-3z" fill="#f6f9fc"/><path d="M79.035 15a3.5 3.5 0 016.93 0z" fill="#fcd669"/><path d="M91.19 15l-8.418 9.16a1 1 0 01-1.504-.036L73.645 15 72 13.03V23a2 2 0 002 2h17a2 2 0 002-2v-9.97z" fill="#e25950"/></g></g><path fill-rule="evenodd" clip-rule="evenodd" d="M105.625 10h15.75c1.45 0 2.625 1.12 2.625 2.5v10c0 1.38-1.175 2.5-2.625 2.5h-15.75c-1.45 0-2.625-1.12-2.625-2.5v-10c0-1.38 1.175-2.5 2.625-2.5z" fill="#E25950"/><path fill-rule="evenodd" clip-rule="evenodd" d="M109.563 16.25h7.875l-1.313 2.5h-5.25l-1.313-2.5zm1.968-3.75l-1.969 2.5h3.938l-1.969-2.5zm1.969 10l-2.625-2.5h5.25l-2.625 2.5zm1.969-10L113.5 15h3.938l-1.97-2.5z" fill="#333"/><g data-name="Layer 2"><g data-name="Layer 1"><path d="M135.995 10A1.997 1.997 0 00134 12.005V15h21v-2.995A2.006 2.006 0 00153.005 10z" fill="#e25950"/><path fill="#555abf" d="M134 15h21v5h-21z"/><path data-name="Rectangle-34" d="M134 20v2.995A2.006 2.006 0 00135.995 25h17.01A1.997 1.997 0 00155 22.995V20z" fill="#fcd669"/></g></g><path fill-rule="evenodd" clip-rule="evenodd" d="M165 17.5V23a2 2 0 002 2h17a2 2 0 002-2v-5.5h-21z" fill="#333"/><path fill-rule="evenodd" clip-rule="evenodd" d="M167 10a2 2 0 00-2 2v5.5h21V12a2 2 0 00-2-2h-17z" fill="#E25950"/><path fill-rule="evenodd" clip-rule="evenodd" d="M171.803 20.715c.191.098.392.184.602.256 2.384.827 5.02-.344 5.887-2.615.868-2.27-.361-4.78-2.745-5.607a4.813 4.813 0 00-.634-.172 5.473 5.473 0 012.708.226c2.725.944 4.13 3.814 3.138 6.408-.992 2.595-4.004 3.933-6.729 2.989a5.233 5.233 0 01-2.227-1.485z" fill="#F4B32E"/><path fill-rule="evenodd" clip-rule="evenodd" d="M174.188 16.25c.724 0 1.312-.56 1.312-1.25s-.588-1.25-1.313-1.25c-.724 0-1.312.56-1.312 1.25s.588 1.25 1.313 1.25z" fill="#F4B32E"/><g data-name="Layer 2"><g data-name="Layer 1"><path d="M197.995 10A1.997 1.997 0 00196 12.005V15h21v-2.995A2.006 2.006 0 00215.005 10z" fill="#45b2e8"/><path fill="#f6f9fc" d="M196 15h21v5h-21z"/><path fill="#eaeef3" d="M196 15h1.001v5H196zm19.999 0H217v5h-1.001z"/><path data-name="Rectangle-34" d="M196 20v2.995A2.006 2.006 0 00197.995 25h17.01A1.997 1.997 0 00217 22.995V20z" fill="#45b2e8"/><circle cx="206.5" cy="17.5" r="1.5" fill="#f4b32e"/></g></g><g data-name="Layer 2"><g data-name="Layer 1"><path d="M228.995 10A1.997 1.997 0 00227 12.005V15h21v-2.995A2.006 2.006 0 00246.005 10z" fill="#e25950"/><path fill="#f6f9fc" d="M227 15h21v5h-21z"/><path fill="#eaeef3" d="M227 15h1.001v5H227zm19.999 0H248v5h-1.001z"/><path data-name="Rectangle-34" d="M227 20v2.995A2.006 2.006 0 00228.995 25h17.01A1.997 1.997 0 00248 22.995V20z" fill="#e25950"/></g></g><g data-name="Layer 2"><g data-name="Layer 1"><path d="M260 10h17a2 2 0 012 2v11a2 2 0 01-2 2h-17a2 2 0 01-2-2V12a2 2 0 012-2z" fill="#43458b"/><path data-name="Shape" d="M258 15.664l3.498-2.4.001-.001h.002v.001l5.425 3.722h-1.767l-3.659-2.51-3.5 2.401zm9-5.569v1.213l-3.499 2.4-.001.001-.001-.001-4.758-3.264a1.983 1.983 0 011.121-.444l3.638 2.496z" fill="#f6f9fc"/><path data-name="Shape" d="M266.909 17l-3.659-2.51-3.659 2.51H258v-.121l5.248-3.601.001-.001h.002v.001L267 15.85V17zm-5.158-3.278v.001h-.002v-.001l-3.601-2.47a1.99 1.99 0 01.601-.801l3.001 2.059 3.659-2.51H267v.121z" fill="#e25950"/><path data-name="Shape" fill="#f6f9fc" d="M267 14.625h-3.375V17h-2.25v-2.375H258v-2.25h3.375V10h2.25v2.375H267v2.25z"/><path data-name="Shape" fill="#e25950" d="M267 13.998h-4V17h-1v-3.002h-4v-.996h4V10h1v3.002h4v.996z"/><path data-name="Shape" d="M275.24 16.5a.75.75 0 11.75-.75.75.75 0 01-.75.75zm-1.25 3a.5.5 0 11.5-.5.5.5 0 01-.5.5zm-1.25-5a.75.75 0 11.75-.75.75.75 0 01-.75.75zm-3 3a.75.75 0 11.75-.75.75.75 0 01-.75.75zm3 4a.75.75 0 11-.75.75.75.75 0 01.75-.75zm-10.75 1.023l-.684.653a.179.179 0 01-.3-.149l.068-.959-.922-.146a.186.186 0 01-.074-.334l.77-.544-.465-.834a.182.182 0 01.207-.268l.892.282.343-.895a.176.176 0 01.332 0l.343.895.892-.282a.182.182 0 01.207.268l-.465.834.77.544a.186.186 0 01-.074.334l-.922.146.068.959a.179.179 0 01-.3.149z" fill="#f6f9fc"/></g></g><path fill-rule="evenodd" clip-rule="evenodd" d="M291 10a2 2 0 00-2 2v3h21v-3a2 2 0 00-2-2h-17z" fill="#217AB7"/><path fill-rule="evenodd" clip-rule="evenodd" d="M289 15h21v5h-21v-5z" fill="#E25950"/><path fill-rule="evenodd" clip-rule="evenodd" d="M289 20v3a2 2 0 002 2h17a2 2 0 002-2v-3h-21z" fill="#24B47E"/><path fill-rule="evenodd" clip-rule="evenodd" d="M298.188 20c.478 0 .926-.122 1.313-.335a2.431 2.431 0 01-.33.023c-1.268 0-2.296-.98-2.296-2.188 0-1.208 1.028-2.188 2.297-2.188.111 0 .221.008.329.023a2.714 2.714 0 00-1.313-.335c-1.45 0-2.626 1.12-2.626 2.5s1.177 2.5 2.626 2.5zm3.937-2.5c0 .69-.588 1.25-1.313 1.25-.724 0-1.312-.56-1.312-1.25s.588-1.25 1.313-1.25c.724 0 1.312.56 1.312 1.25z" fill="#fff"/><path fill-rule="evenodd" clip-rule="evenodd" d="M322 10a2 2 0 00-2 2v11a2 2 0 002 2h17a2 2 0 002-2V12a2 2 0 00-2-2h-17z" fill="#43458B"/><path fill-rule="evenodd" clip-rule="evenodd" d="M322.625 10h15.75v15l-15.75-15z" fill="#FCD669"/><path fill-rule="evenodd" clip-rule="evenodd" d="M322.625 11.875c0-.345.28-.625.625-.625h.063a.625.625 0 110 1.25h-.063a.625.625 0 01-.625-.625zm1.313 1.25c0-.345.28-.625.624-.625h.063a.625.625 0 110 1.25h-.063a.625.625 0 01-.625-.625zm1.937.625a.625.625 0 100 1.25h.063a.625.625 0 100-1.25h-.063zm.688 1.875c0-.345.28-.625.625-.625h.062a.625.625 0 110 1.25h-.063a.625.625 0 01-.625-.625zm1.937.625a.625.625 0 100 1.25h.063a.625.625 0 100-1.25h-.063zm.688 1.875c0-.345.28-.625.624-.625h.063a.625.625 0 110 1.25h-.063a.625.625 0 01-.624-.625zm1.937.625a.625.625 0 100 1.25h.063a.625.625 0 100-1.25h-.063zm.688 1.875c0-.345.28-.625.624-.625h.063a.625.625 0 110 1.25h-.063a.625.625 0 01-.624-.625zm1.937.625a.625.625 0 100 1.25h.063a.625.625 0 100-1.25h-.063zm.688 1.875c0-.345.28-.625.624-.625h.063a.625.625 0 110 1.25h-.063a.625.625 0 01-.624-.625z" fill="#fff"/><path opacity=".5" fill-rule="evenodd" clip-rule="evenodd" d="M321.313 10.625c0-.345.28-.625.625-.625H322a.625.625 0 110 1.25h-.063a.625.625 0 01-.625-.625zm14.437 13.75c0-.345.28-.625.625-.625h.063a.625.625 0 110 1.25h-.063a.625.625 0 01-.625-.625z" fill="#fff"/><path fill-rule="evenodd" clip-rule="evenodd" d="M338.375 10h-15.75v1.25h15.75V10zm-1.313 13.75V25h1.313v-1.25h-1.313z" fill="#A68527" fill-opacity=".1"/><rect width="21" height="15" rx="2" fill="#159570" x="351" y="10"/><path d="M359.5 13a4.5 4.5 0 110 9 4.5 4.5 0 010-9z" fill="#E25950"/><g data-name="Layer 2"><g data-name="Layer 1"><path fill="#fcd669" d="M388 10h9v15h-9V10z"/><path data-name="Shape" d="M384 10h5v15h-5a2 2 0 01-2-2V12a2 2 0 012-2z" fill="#333"/><path data-name="Shape" d="M401 25h-5V10h5a2 2 0 012 2v11a2 2 0 01-2 2z" fill="#e25950"/></g></g><g data-name="Layer 2"><g data-name="Layer 1"><path d="M414.995 10A1.991 1.991 0 00413 11.998V18h21v-6.002A2.002 2.002 0 00432.005 10z" fill="#e25950"/><path data-name="Rectangle-295" d="M413 18v4.994A2.006 2.006 0 00414.995 25h17.01A1.993 1.993 0 00434 22.994V18z" fill="#24b47e"/><path fill="#fcd669" d="M423.5 19.55l-2.645 1.591.705-2.946-2.34-2.186 2.957-.129L423.5 13l1.323 2.88 2.957.129-2.34 2.186.705 2.946-2.645-1.591z"/></g></g><g data-name="Layer 2"><g data-name="Layer 1"><path d="M445.995 10A1.999 1.999 0 00444 11.998V16h21v-4.002A2.002 2.002 0 00463.005 10z" fill="#f6f9fc"/><path d="M444.5 15.5h20v-3.502a1.502 1.502 0 00-1.495-1.498h-17.01a1.499 1.499 0 00-1.495 1.498z" fill="none" stroke="#eaeef3"/><path fill="#24b47e" d="M444 15h21v5h-21z"/><path d="M444 20v2.995A2.006 2.006 0 00445.995 25h17.01A1.997 1.997 0 00465 22.995V20z" fill="#e25950" data-name="Rectangle-34"/></g></g><path d="M477.625 10h15.75c1.45 0 2.625 1.12 2.625 2.5v10c0 1.38-1.175 2.5-2.625 2.5h-15.75c-1.45 0-2.625-1.12-2.625-2.5v-10c0-1.38 1.175-2.5 2.625-2.5z" fill="#F6F9FC"/><path d="M477.625 11.25c-.725 0-1.313.56-1.313 1.25v10c0 .69.588 1.25 1.313 1.25h5.25V25h-5.25c-1.45 0-2.625-1.12-2.625-2.5v-10c0-1.38 1.175-2.5 2.625-2.5h5.25v1.25h-5.25z" fill="#EAEEF3"/><path fill-rule="evenodd" clip-rule="evenodd" d="M493.378 25h-11.816l1.313-.625-2.625-1.25 2.625-1.25-2.625-1.25 2.625-1.25-2.625-1.25 2.625-1.25-2.625-1.25 2.625-1.25-2.625-1.25 2.625-1.25-2.625-1.25 1.313-.625h11.815c1.446 0 2.622 1.124 2.622 2.51v9.98c0 1.383-1.174 2.51-2.622 2.51z" fill="#E25950"/><path fill-rule="evenodd" clip-rule="evenodd" d="M508 10a2 2 0 00-2 2v11a2 2 0 002 2h5.875V10H508z" fill="#24B47E"/><path fill-rule="evenodd" clip-rule="evenodd" d="M524.56 10c1.346 0 2.44 1.274 2.44 2.846V17.5h-13.125V10h10.685z" fill="#FCD669"/><path fill-rule="evenodd" clip-rule="evenodd" d="M527 22.821c0 1.202-1.093 2.179-2.44 2.179h-10.685v-7.5H527v5.321z" fill="#E25950"/><path d="M12.625 35h15.75C29.825 35 31 36.12 31 37.5v10c0 1.38-1.175 2.5-2.625 2.5h-15.75C11.175 50 10 48.88 10 47.5v-10c0-1.38 1.175-2.5 2.625-2.5z" fill="#FCD669"/><path d="M29.688 41.25V37.5c0-.69-.588-1.25-1.313-1.25h-15.75c-.725 0-1.313.56-1.313 1.25H10c0-1.38 1.175-2.5 2.625-2.5h15.75C29.825 35 31 36.12 31 37.5v3.75h-1.313zm-18.375 2.5v3.75c0 .69.587 1.25 1.312 1.25h15.75c.725 0 1.313-.56 1.313-1.25H31c0 1.38-1.175 2.5-2.625 2.5h-15.75C11.175 50 10 48.88 10 47.5v-3.75h1.313z" fill="#A68527" fill-opacity=".1"/><path fill-rule="evenodd" clip-rule="evenodd" d="M10 36.875l21 3.75v3.75l-21-3.75v-3.75z" fill="#F6F9FC"/><path fill-rule="evenodd" clip-rule="evenodd" d="M11.313 40.86v-3.75L10 36.874v3.75l1.313.234zM31 40.624l-1.313-.234v3.75l1.313.235v-3.75z" fill="#EAEEF3"/><path fill-rule="evenodd" clip-rule="evenodd" d="M10 40.625l21 3.75v3.75l-21-3.75v-3.75z" fill="#333"/><path d="M20.5 40c1.45 0 2.625 1.12 2.625 2.5S21.95 45 20.5 45s-2.625-1.12-2.625-2.5S19.05 40 20.5 40z" fill="#E25950"/><g data-name="Layer 2"><g data-name="Layer 1"><path d="M42.995 35A1.997 1.997 0 0041 37.005V40h21v-2.995A2.006 2.006 0 0060.005 35z" fill="#e25950"/><path fill="#fcd669" d="M41 40h21v5H41z"/><path data-name="Rectangle-34" d="M41 45v2.995A2.006 2.006 0 0042.995 50h17.01A1.997 1.997 0 0062 47.995V45z" fill="#24b47e"/><path fill="#efc65e" d="M41 40h1.001v5H41zm19.999 0H62v5h-1.001z"/></g></g><g data-name="Layer 2"><g data-name="Layer 1"><path d="M74 35h17a2 2 0 012 2v11a2 2 0 01-2 2H74a2 2 0 01-2-2V37a2 2 0 012-2z" fill="#24b47e"/><path data-name="Shape" fill="#fcd669" d="M82.999 37l8.999 6.004-8.999 6.004L74 43.004 82.999 37z"/><path d="M79.051 41.993A3.477 3.477 0 0079 42.5a3.483 3.483 0 005.766 2.648 8.588 8.588 0 00-5.716-3.155zm6.523 2.147A3.461 3.461 0 0086 42.5a3.489 3.489 0 00-6.54-1.702 9.848 9.848 0 016.114 3.342z" fill="#43458b"/><path d="M79.46 40.798a3.451 3.451 0 00-.408 1.195 8.588 8.588 0 015.714 3.155 3.49 3.49 0 00.808-1.008 9.848 9.848 0 00-6.114-3.342z" fill="#fff"/></g></g><path fill-rule="evenodd" clip-rule="evenodd" d="M105 35a2 2 0 00-2 2v11a2 2 0 002 2h17a2 2 0 002-2V37a2 2 0 00-2-2h-17z" fill="#FCD669"/><path d="M122.688 45v-5H124v5h-1.313z" fill="#A68527" fill-opacity=".1"/><path fill-rule="evenodd" clip-rule="evenodd" d="M103 37a2 2 0 012-2h17a2 2 0 012 2v3h-21v-3zm0 11v-3h21v3a2 2 0 01-2 2h-17a2 2 0 01-2-2z" fill="#45B2E8"/><path fill-rule="evenodd" clip-rule="evenodd" d="M103.92 49.4a2.465 2.465 0 01-.92-1.91v-9.98c0-.766.36-1.454.928-1.915.032.013.063.03.092.049l10.793 6.852-10.793 6.851a.673.673 0 01-.1.052z" fill="#333"/><path fill-rule="evenodd" clip-rule="evenodd" d="M152.375 50h-15.75c-1.45 0-2.625-1.12-2.625-2.5v-10c0-1.38 1.175-2.5 2.625-2.5h15.75c1.45 0 2.625 1.12 2.625 2.5v10c0 1.38-1.175 2.5-2.625 2.5z" fill="#FCD669"/><path fill-rule="evenodd" clip-rule="evenodd" d="M152.375 35h-15.75c-1.45 0-2.625 1.12-2.625 2.5v10c0 1.38 1.175 2.5 2.625 2.5h15.75c1.45 0 2.625-1.12 2.625-2.5v-10c0-1.38-1.175-2.5-2.625-2.5zm-15.75 13.75c-.725 0-1.313-.56-1.313-1.25v-10c0-.69.588-1.25 1.313-1.25h15.75c.725 0 1.313.56 1.313 1.25v10c0 .69-.588 1.25-1.313 1.25h-15.75z" fill="#A68527" fill-opacity=".1"/><path fill-rule="evenodd" clip-rule="evenodd" d="M136.625 50a2.69 2.69 0 01-1.743-.63l19.236-13.74c.54.458.882 1.126.882 1.87v10c0 1.38-1.175 2.5-2.625 2.5h-15.75z" fill="#E25950"/><path d="M140.563 45h2.625v-2.5h2.624V40h2.626" stroke="#fff" stroke-width="2" stroke-linecap="square"/><path fill-rule="evenodd" clip-rule="evenodd" d="M165 38.75v7.5h21v-7.5h-21z" fill="#F6F9FC"/><path fill-rule="evenodd" clip-rule="evenodd" d="M166.313 40H165v5h1.313v-5zm18.375 0v5H186v-5h-1.313z" fill="#EAEEF3"/><path fill-rule="evenodd" clip-rule="evenodd" d="M165 37a2 2 0 012-2h17a2 2 0 012 2v3h-21v-3zm0 11v-3h21v3a2 2 0 01-2 2h-17a2 2 0 01-2-2z" fill="#45B2E8"/><path fill-rule="evenodd" clip-rule="evenodd" d="M165 41.25v2.5h21v-2.5h-21z" fill="#333"/><g data-name="Layer 2"><g data-name="Layer 1"><path fill="#f6f9fc" d="M201 35h11v15h-11V35z"/><path data-name="Shape" d="M212 36h-11v-1h11zm-11 13h11v1h-11z" fill="#e25950" opacity=".1" style="isolation:isolate"/><path data-name="Shape" d="M206.045 45.97l-.003-1.974-1.399-.008.177-.819-1.82-.277.647-1.197-.58-1.585 1.593.634.471-1.818.698.356.668-1.283.76 1.264.621-.286.299 1.757 1.773-.557-.545 1.47.595 1.235-1.76.287.161.811-1.442-.014.008 1.985zM202 50h-4a2 2 0 01-2-2V37a2 2 0 012-2h4zm13 0h-4V35h4a2 2 0 012 2v11a2 2 0 01-2 2z" fill="#e25950"/></g></g><g data-name="Layer 2"><g data-name="Layer 1"><rect width="21" height="15" rx="3" ry="3" fill="#fcd669" x="227" y="35"/><path d="M228.992 35A1.99 1.99 0 00227 37v8l15-10z" fill="#45b2e8"/><circle cx="230" cy="38" r="1" fill="#fcd669"/><path data-name="Rectangle-87" d="M248 48a1.997 1.997 0 01-1.992 2H233l15-10z" fill="#45b2e8"/><path d="M246 35h-1l-18 12v1a2 2 0 002 2h1l18-12v-1a2 2 0 00-2-2z" fill="#e25950"/></g></g><g data-name="Layer 2"><g data-name="Layer 1"><path d="M277 35h-3l-15.393 14.431A1.99 1.99 0 00260 50h3l15.393-14.431A1.99 1.99 0 00277 35z" fill="#fcd669"/><path d="M260 35a2 2 0 00-2 2v11a1.991 1.991 0 00.607 1.431L274 35z" fill="#24b47e"/><path d="M263 50h14a2 2 0 002-2V37a1.991 1.991 0 00-.607-1.431z" fill="#e25950"/></g></g><g data-name="Layer 2"><g data-name="Layer 1"><path d="M291 35h17a2 2 0 012 2v11a2 2 0 01-2 2h-17a2 2 0 01-2-2V37a2 2 0 012-2z" fill="#e25950"/><path fill="#fff" d="M304 44h-3v3h-3v-3h-3v-3h3v-3h3v3h3v3z"/></g></g><path d="M327 35h7v15h-7V35z" fill="#F6F9FC"/><path d="M327 35h7v1h-7v-1z" fill="#EAEEF3"/><path d="M322.8 35h4.2v15h-4.2c-1.546 0-2.8-1.12-2.8-2.5v-10c0-1.38 1.254-2.5 2.8-2.5z" fill="#F79A59"/><path d="M338.2 50H334V35h4.2c1.546 0 2.8 1.12 2.8 2.5v10c0 1.38-1.254 2.5-2.8 2.5z" fill="#24B47E"/><g data-name="Layer 2"><g data-name="Layer 1"><path d="M359.499 43.5v-8h10.492a1.505 1.505 0 011.509 1.498V43.5z" fill="#f7f7f7"/><path d="M369.991 36a1.004 1.004 0 011.009.997V43h-11v-7h9.992m0-1h-10.993v9H372v-7.003A2.005 2.005 0 00369.991 35z" fill="#e9ebf0"/><path d="M351 43v4.994A2.006 2.006 0 00352.995 50h17.01A1.993 1.993 0 00372 47.994V43z" fill="#e25950"/><path data-name="Rectangle-295" d="M352.997 35A1.993 1.993 0 00351 36.998V43h9v-8z" fill="#43458b"/><path d="M357.34 38.422l-1.169.002a.162.162 0 01-.154-.112l-.362-1.112a.162.162 0 00-.31 0l-.36 1.111a.162.162 0 01-.155.113h-1.17a.162.162 0 00-.095.294l.946.687a.162.162 0 01.058.182l-.359 1.113a.162.162 0 00.25.182l.946-.634a.162.162 0 01.191 0l.946.634a.162.162 0 00.25-.182l-.361-1.111a.162.162 0 01.059-.183l.946-.687a.162.162 0 00.06-.182.165.165 0 00-.156-.114z" fill="#fff"/></g></g><g data-name="Layer 2"><g data-name="Layer 1"><path d="M384.006 35A2 2 0 00382 36.992v11.016A1.992 1.992 0 00384.006 50H389V35z" fill="#24b47e"/><path d="M396 35v15h4.994A2 2 0 00403 48.008V36.992A1.992 1.992 0 00400.994 35z" fill="#fcd669"/><path data-name="Rectangle-295" fill="#e25950" d="M388 35h9v15h-9z"/><path d="M395.625 41.302l-2.014.005a.28.28 0 01-.267-.194l-.624-1.917a.28.28 0 00-.534 0l-.622 1.916a.28.28 0 01-.266.194h-2.015a.28.28 0 00-.165.507l1.63 1.185a.28.28 0 01.102.314l-.622 1.916a.28.28 0 00.432.314l1.63-1.093a.28.28 0 01.33 0l1.63 1.093a.28.28 0 00.432-.314l-.624-1.916a.28.28 0 01.102-.314l1.63-1.185a.28.28 0 00.103-.313.284.284 0 00-.268-.198z" fill="#fcd669"/></g></g><g data-name="Layer 2"><g data-name="Layer 1"><rect width="21" height="15" rx="2" ry="2" fill="#e25950" x="413" y="35"/><path d="M425.5 38a.5.5 0 01.5.5.5.5 0 01-.5.5.5.5 0 01-.5-.5.5.5 0 01.5-.5z" fill="#fcd669"/><path data-name="Rectangle-96" d="M426.5 40a.5.5 0 01.5.5.5.5 0 01-.5.5.5.5 0 01-.5-.5.5.5 0 01.5-.5z" fill="#fcd669"/><path d="M426.5 42a.5.5 0 01.5.5.5.5 0 01-.5.5.5.5 0 01-.5-.5.5.5 0 01.5-.5z" fill="#fcd669"/><path data-name="Rectangle-96" d="M425.5 44a.5.5 0 01.5.5.5.5 0 01-.5.5.5.5 0 01-.5-.5.5.5 0 01.5-.5z" fill="#fcd669"/><path fill="#fcd669" d="M419.471 43.588L417.013 45l.609-2.757-1.651-2.068 2.48-.138 1.02-2.137 1.021 2.137 2.479.138-1.651 2.068.689 2.757-2.538-1.412z"/></g></g><g data-name="Layer 2"><g data-name="Layer 1"><path d="M445.995 35A1.993 1.993 0 00444 37.006V42h21v-4.994A2.006 2.006 0 00463.005 35z" fill="#fcd669"/><path fill="#43458b" d="M444 42h21v4h-21z"/><path data-name="Rectangle-34" d="M444 46v2a2.003 2.003 0 001.995 2h17.01A1.992 1.992 0 00465 48v-2z" fill="#e25950"/></g></g><path d="M496 38h-21v-1a2 2 0 012-2h17a2 2 0 012 2z" fill="#0172c6"/><path fill="#f9f9f9" d="M475 38h21v2h-21zm0 7h21v2h-21z"/><path d="M475 47h21v1a2 2 0 01-2 2h-17a2 2 0 01-2-2z" fill="#0172c6"/><path fill="#e25950" d="M475 40h21v5h-21z"/><path d="M479.52 40a2.5 2.5 0 102.48 2.54 2.5 2.5 0 00-2.48-2.54zm0 4a1.5 1.5 0 111.48-1.46 1.5 1.5 0 01-1.48 1.46z" fill="#f9f9f9"/><circle cx="479.52" cy="42.54" r="1.5" fill="#0172c6"/><g data-name="Layer 2"><g data-name="Layer 1"><path d="M508 35h17a2 2 0 012 2v11a2 2 0 01-2 2h-17a2 2 0 01-2-2V37a2 2 0 012-2z" fill="#f6f9fc"/><path data-name="Shape" d="M525 50h-17a2 2 0 01-2-2V37a2 2 0 012-2h17a2 2 0 012 2v11a2 2 0 01-2 2zm1-13a1 1 0 00-1-1h-17a1 1 0 00-1 1v11a1 1 0 001 1h17a1 1 0 001-1z" style="isolation:isolate" fill="#8898aa" opacity=".2"/><path d="M521.28 42.2h-1a3.85 3.85 0 01-7.46 0h-1a4.89 4.89 0 003.42 3.71 1.55 1.55 0 00.25 1.87l1.11-1.11 1.11 1.11a1.55 1.55 0 00.25-1.87 4.89 4.89 0 003.32-3.71z" fill="#24b47e"/><path d="M513.06 40.7a2.38 2.38 0 002.29 2.18l.64.55h.35a2.06 2.06 0 011.78-1.37s.16-1 .79-1h1.67a3.4 3.4 0 011.9-3.37l-1-.47A7.45 7.45 0 01516 39.2a1.26 1.26 0 01-.25.91c-.27.28-.74 0-.74 0s-.28-.52-.56-.56-1.39 1.15-1.39 1.15z" fill="#f79a59"/></g></g><g data-name="Layer 2"><g data-name="Layer 1"><path d="M30 67v-5a1 1 0 00-1-1H12a.981.981 0 00-.325.066L21 67zm-19.335 7.48a1.991 1.991 0 00.596.375 1.998 1.998 0 01-.595-.375z" fill="#f6f9fc"/><path d="M10.665 74.48a1.991 1.991 0 00.596.375 1.998 1.998 0 01-.595-.375z" fill="#8898aa" opacity=".2" style="isolation:isolate"/><path d="M29 60H12a1.982 1.982 0 00-1.29.484.788.788 0 01.135.054l.83.528A.981.981 0 0112 61h17a1 1 0 011 1v5h1v-5a2 2 0 00-2-2z" fill="#f6f9fc"/><path d="M29 60H12a1.982 1.982 0 00-1.29.484.788.788 0 01.135.054l.83.528A.981.981 0 0112 61h17a1 1 0 011 1v5h1v-5a2 2 0 00-2-2z" fill="#8898aa" opacity=".2" style="isolation:isolate"/><path d="M11.995 75H12a1.988 1.988 0 01-.739-.145 1.966 1.966 0 00.734.145zM29 75h.005A1.991 1.991 0 0031 73.002V73a2 2 0 01-2 2z" fill="#e25950"/><path d="M30 67h-9l-9.456 6.877-.735.535a.774.774 0 01-.143.067A1.982 1.982 0 0012 75h17a2 2 0 002-2v-6z" fill="#e25950"/><path d="M10.04 73.403c-.008-.04-.006-.085-.012-.128.006.043.004.087.013.128zm.035.111a1.99 1.99 0 00.59.966 1.994 1.994 0 01-.59-.966zM10 73v.002a1.957 1.957 0 00.028.273A1.969 1.969 0 0110 73zm.075.514c-.01-.037-.026-.072-.034-.11.008.038.024.073.034.11z" fill="#43458b"/><path d="M11.675 61.066l-.83-.528a.788.788 0 00-.136-.054A1.986 1.986 0 0010 62v11a1.969 1.969 0 00.028.275c.006.043.004.087.013.128.008.039.024.074.034.111a1.994 1.994 0 00.591.965.774.774 0 00.143-.067l.735-.535L21 67z" fill="#43458b"/></g></g><g data-name="Layer 2"><g data-name="Layer 1"><path fill="#e25950" d="M41 64h21v7H41v-7z"/><path data-name="Shape" d="M41 73v-3h21v3a2 2 0 01-2 2H43a2 2 0 01-2-2z" fill="#fcd669"/><path data-name="Shape" d="M62 62v3H41v-3a2 2 0 012-2h17a2 2 0 012 2z" fill="#333"/></g></g><g data-name="Layer 2"><g data-name="Layer 1"><path d="M72 67v6.002A2.002 2.002 0 0073.995 75h17.01A1.991 1.991 0 0093 73.002V67z" fill="#24b47e"/><path data-name="Rectangle-295" d="M72 62v6h21v-6a2 2 0 00-2-2H74a2 2 0 00-2 2z" fill="#45b2e8"/><path d="M74.647 61.623c-.91-.62-1.647-.226-1.647.883v9.988c0 1.108.773 1.549 1.719.99L84 68z" fill="#fff"/><path d="M78.796 66.845l-1.458.004a.202.202 0 01-.193-.14l-.452-1.389a.202.202 0 00-.386 0l-.45 1.387a.202.202 0 01-.193.14h-1.46a.202.202 0 00-.118.367l1.18.858a.202.202 0 01.073.227l-.45 1.387a.202.202 0 00.313.228l1.18-.792a.202.202 0 01.238 0l1.18.792a.202.202 0 00.313-.227L77.66 68.3a.202.202 0 01.074-.227l1.18-.858a.202.202 0 00.075-.227.205.205 0 00-.194-.143z" fill="#e25950"/></g></g><g data-name="Layer 2"><g data-name="Layer 1"><path d="M105 60h17a2 2 0 012 2v11a2 2 0 01-2 2h-17a2 2 0 01-2-2V62a2 2 0 012-2z" fill="#e25950"/><path data-name="Shape" fill="#f6f9fc" d="M124 69h-12v6h-3v-6h-6v-3h6v-6h3v6h12v3z"/><path data-name="Shape" d="M123 70v-5h1v5zm-15 4h5v1h-5zm0-14h5v1h-5zm-5 5h1v5h-1z" fill="#e25950" opacity=".1" style="isolation:isolate"/></g></g><path fill="#e25950" d="M136 60h17a2 2 0 012 2v11a2 2 0 01-2 2h-17a2 2 0 01-2-2V62a2 2 0 012-2z"/><path fill="#f6f9fc" d="M155 69h-9v6h-2.99v-6H134v-3h9v-6h3v6h9v3z"/><path fill="#555abf" d="M154 69v-3h1v3zm-11 5h3v1h-3zm-9-8h1v3h-1zm9-6h3v1h-3z" opacity=".1"/><path fill="#43458b" d="M136 60h7v6h-9v-4.01a1.99 1.99 0 012-1.99zm17.02 15H146v-6h9v4.01a1.98 1.98 0 01-1.98 1.99z"/><circle fill="#24b47e" cx="144.5" cy="67.5" r=".95"/><g data-name="Layer 2"><g data-name="Layer 1"><path d="M171 60v15h13.008A1.993 1.993 0 00186 73.008V61.992A1.993 1.993 0 00184.008 60z" fill="#f6f9fc"/><path data-name="Rectangle-87" d="M167 60a1.997 1.997 0 00-2 1.992v11.016A1.99 1.99 0 00167 75h8V60z" fill="#24b47e"/><path d="M175 63.027v1.021a3.531 3.531 0 00-3 3.452 3.531 3.531 0 003 3.452v1.02a4.5 4.5 0 110-8.945z" fill="#e25950"/><path data-name="Oval-38" d="M178.482 65.403A3.63 3.63 0 00175.6 64a3.551 3.551 0 00-3.6 3.5 3.551 3.551 0 003.6 3.5 3.63 3.63 0 002.882-1.403 4.5 4.5 0 110-4.194z" fill="#e25950"/><circle cx="177.5" cy="67.5" r="1.5" fill="#e25950"/><path d="M184 61a1 1 0 011 1v11a1 1 0 01-1 1h-9v1h9a2 2 0 002-2V62a2 2 0 00-2-2h-9v1z" fill="#8898aa" opacity=".2" style="isolation:isolate"/></g></g><path d="M198 60h17a2 2 0 012 2v5h-21v-5a2 2 0 012-2z" fill="#ffdd03"/><path fill="#555abf" d="M196 67h21v4h-21z"/><path d="M196 71h21v2a2 2 0 01-2 2h-17a2 2 0 01-2-2v-2z" fill="#e25950"/><path d="M206.5 64a3.5 3.5 0 103.5 3.5 3.5 3.5 0 00-3.5-3.5zm0 6a2.5 2.5 0 112.5-2.5 2.5 2.5 0 01-2.5 2.5z" fill="#ffdd03"/><circle cx="206.5" cy="67.5" r="2.5" fill="#6fc242"/><g data-name="Layer 2"><g data-name="Layer 1"><path d="M228.995 60A1.997 1.997 0 00227 62.005V65h21v-2.995A2.006 2.006 0 00246.005 60z" fill="#45b2e8"/><path d="M227 69v4.002A2.002 2.002 0 00228.995 75h17.01A1.999 1.999 0 00248 73.002V69z" fill="#f6f9fc" data-name="Rectangle-34"/><path d="M246 75h-17a2 2 0 01-2-2v-6h1v6a1 1 0 001 1h17a1 1 0 001-1v-6h1v6a2 2 0 01-2 2z" fill="#8898aa" opacity=".2" style="isolation:isolate"/><path d="M227 65h21v5h-21z"/></g></g><g data-name="Layer 2"><g data-name="Layer 1"><path d="M259.995 60A1.997 1.997 0 00258 62.005V65h21v-2.995A2.006 2.006 0 00277.005 60z" fill="#e25950"/><path fill="#fff" d="M258 65h21v5h-21z"/><path data-name="Rectangle-34" d="M258 70v2.995A2.006 2.006 0 00259.995 75h17.01A1.997 1.997 0 00279 72.995V70z"/><path d="M265 66l3 1-3 2zm7 0v3l-3-2zm-4 2h1v1h-1z"/><path data-name="path-141" d="M265 66l3 1-3 2zm7 0v3l-3-2zm-4 2h1v1h-1z" fill="#fcd669"/><path fill="#eaeef3" d="M258 65h1.001v5H258zm19.999 0H279v5h-1.001z"/></g></g><g data-name="Layer 2"><g data-name="Layer 1"><path fill="#fcd669" d="M289 63h21v9h-21v-9z"/><path data-name="Shape" d="M289 64v-2a2 2 0 012-2h17a2 2 0 012 2v2zm19 11h-17a2 2 0 01-2-2v-2h21v2a2 2 0 01-2 2z" fill="#e25950"/><path data-name="Shape" fill="#f6f9fc" d="M294 65h2v2.5h-2V65z"/><path data-name="Shape" d="M294 70a2 2 0 01-2-2v-.5h2z" fill="#e25950" opacity=".5" style="isolation:isolate"/><path data-name="Shape" d="M294 70v-2.5h2v.5a2 2 0 01-2 2zm-2-5h2v2.5h-2z" fill="#e25950"/></g></g><path fill-rule="evenodd" clip-rule="evenodd" d="M322 60a2 2 0 00-2 2v3h21v-3a2 2 0 00-2-2h-17z" fill="#24B47E"/><path fill-rule="evenodd" clip-rule="evenodd" d="M320 65h21v5h-21v-5z" fill="#FCD669"/><path fill-rule="evenodd" clip-rule="evenodd" d="M321.313 65H320v5h1.313v-5zm18.375 0v5H341v-5h-1.313z" fill="#A68527" fill-opacity=".1"/><path fill-rule="evenodd" clip-rule="evenodd" d="M320 70v3a2 2 0 002 2h17a2 2 0 002-2v-3h-21z" fill="#E25950"/><path fill-rule="evenodd" clip-rule="evenodd" d="M330.5 71.25c2.175 0 3.938-1.679 3.938-3.75 0-2.071-1.763-3.75-3.938-3.75-2.175 0-3.938 1.679-3.938 3.75 0 2.071 1.763 3.75 3.938 3.75z" fill="#45B2E8"/><path d="M332.793 66.628l-1.495.003a.207.207 0 01-.198-.137l-.463-1.355a.206.206 0 00-.198-.139.207.207 0 00-.198.139l-.462 1.354a.207.207 0 01-.198.137h-1.496a.207.207 0 00-.2.137.192.192 0 00.078.222l1.21.838c.073.05.103.14.075.221l-.462 1.356a.19.19 0 00.074.223c.074.051.174.05.247-.002l1.21-.773a.216.216 0 01.245 0l1.21.773a.216.216 0 00.246.002.192.192 0 00.075-.223l-.463-1.356a.192.192 0 01.075-.221l1.21-.838a.192.192 0 00.077-.222.21.21 0 00-.199-.14z" fill="#FCD669"/><g data-name="Layer 2"><g data-name="Layer 1"><path d="M353 60h17a2 2 0 012 2v11a2 2 0 01-2 2h-17a2 2 0 01-2-2V62a2 2 0 012-2z" fill="#43458b"/><path data-name="Shape" d="M365.906 68.219a.844.844 0 11.844-.844.843.843 0 01-.844.844zm-1.895-3.444a.849.849 0 111.19-.01.849.849 0 01-1.19.01zm1.165 5.2A.85.85 0 11364 70a.85.85 0 011.176-.025zm-3.801 2.775a.844.844 0 11.844-.844.844.844 0 01-.844.844zm0-9.063a.844.844 0 11.843-.844.843.843 0 01-.843.844zm-3.765 7.489a.849.849 0 111.19-.01.849.849 0 01-1.19.01zm-.036-6.401a.85.85 0 011.201-1.201.85.85 0 01-1.201 1.201zm.113 2.6a.844.844 0 11-.844-.843.843.843 0 01.844.843z" fill="#fce883"/></g></g><g data-name="Layer 2"><g data-name="Layer 1"><path d="M384 60h17a2 2 0 012 2v11a2 2 0 01-2 2h-17a2 2 0 01-2-2V62a2 2 0 012-2z" fill="#f6f9fc"/><path data-name="Shape" d="M401 75h-17a2 2 0 01-2-2V62a2 2 0 012-2h17a2 2 0 012 2v11a2 2 0 01-2 2zm1-13a1 1 0 00-1-1h-17a1 1 0 00-1 1v11a1 1 0 001 1h17a1 1 0 001-1z" fill="#8898aa" opacity=".25" style="isolation:isolate"/><path data-name="Shape" fill="#555abf" d="M403 69h-12v6h-3v-6h-6v-3h6v-6h3v6h12v3z"/></g></g><rect width="21" height="15" rx="2" fill="#f6f9fc" x="413" y="60"/><path d="M432 61a1 1 0 011 1v11a1 1 0 01-1 1h-17a1 1 0 01-1-1V62a1 1 0 011-1h17m0-1h-17a2 2 0 00-2 2v11a2 2 0 002 2h17a2 2 0 002-2V62a2 2 0 00-2-2z" fill="#eaeef3"/><path fill="#0172c6" d="M434 66h-13.42v-6h-3v6H413v3h4.58v6h3v-6H434v-3z"/><path fill="#e25950" d="M434 67h-14.42v-7h-1v7H413v1h5.58v7h1v-7H434v-1z"/><g data-name="Layer 2"><g data-name="Layer 1"><path fill="#f6f9fc" d="M450 60h9v15h-9V60z"/><path data-name="Shape" d="M450 75v-1h9v1zm0-15h9v1h-9z" fill="#8898aa" opacity=".1" style="isolation:isolate"/><path data-name="Shape" d="M446 60h5v15h-5a2 2 0 01-2-2V62a2 2 0 012-2z" fill="#555abf"/><path data-name="Shape" d="M463 75h-5V60h5a2 2 0 012 2v11a2 2 0 01-2 2z" fill="#e25950"/></g></g><g data-name="Layer 2"><g data-name="Layer 1"><path d="M476.995 60A1.997 1.997 0 00475 62.005V65h21v-2.995A2.006 2.006 0 00494.005 60z" fill="#24b47e"/><path fill="#fcd669" d="M475 65h21v5h-21z"/><path data-name="Rectangle-34" d="M475 70v2.995A2.006 2.006 0 00476.995 75h17.01A1.997 1.997 0 00496 72.995V70z" fill="#217ab7"/><path fill="#e9c863" d="M475 65h1.001v5H475zm20 0h1.001v5H495z"/></g></g><g data-name="Layer 2"><g data-name="Layer 1"><path d="M526.929 73.5H524.5V75h-16v-1.5h-2.429A1.966 1.966 0 01506 73V62a1.966 1.966 0 01.071-.5h2.429V60h16v1.5h2.429a1.966 1.966 0 01.071.5v11a1.966 1.966 0 01-.071.5z" fill="#43458b"/><path data-name="Shape" d="M523.659 60H525a2 2 0 012 2v.454L523.629 65H527v5h-3.288L527 72.483V73a2 2 0 01-2 2h-1.258L519 71.419V75h-5v-3.581L509.258 75H508a2 2 0 01-2-2v-.517L509.288 70H506v-5h3.371L506 62.454V62a2 2 0 012-2h1.341L514 63.519V60h5v3.519z" fill="#f6f9fc"/><path data-name="Shape" d="M518 69v6h-3v-6h-9v-3h9v-6h3v6h9v3zm.5-3.5v-.218l6.929-5.233a1.99 1.99 0 011.138.722l-6.261 4.729zm-12.291-4.374a2.005 2.005 0 01.896-.906l6.99 5.28h-2.094zM514.5 69.5v.218l-6.929 5.233a1.99 1.99 0 01-1.138-.722l6.261-4.729zm12.291 4.374a2 2 0 01-.896.906l-6.99-5.28h2.094z" fill="#e25950"/></g></g><g fill="none"><path fill="#fff" d="M11 86h19v13H11z"/><path fill="#EAEEF3" d="M28.375 100h-15.75C11.175 100 10 98.88 10 97.5v-10c0-1.38 1.175-2.5 2.625-2.5h15.75C29.825 85 31 86.12 31 87.5v10c0 1.38-1.175 2.5-2.625 2.5zm1.313-12.5c0-.69-.588-1.25-1.313-1.25h-15.75c-.725 0-1.313.56-1.313 1.25v10c0 .69.588 1.25 1.313 1.25h15.75c.725 0 1.313-.56 1.313-1.25v-10z"/><path fill="#E25950" d="M31 93.75h-9.188V100h-2.624v-6.25H10v-2.5h9.188V85h2.624v6.25H31v2.5z"/><path fill="#E25950" d="M13.938 87.5v-1.25h1.312v1.25h1.313v1.25H15.25V90h-1.313v-1.25h-1.312V87.5h1.313zm11.812 0v-1.25h1.313v1.25h1.312v1.25h-1.313V90H25.75v-1.25h-1.313V87.5h1.313zm0 8.75V95h1.313v1.25h1.312v1.25h-1.313v1.25H25.75V97.5h-1.313v-1.25h1.313zm-11.813 0V95h1.313v1.25h1.313v1.25H15.25v1.25h-1.313V97.5h-1.312v-1.25h1.313z"/></g><path fill-rule="evenodd" clip-rule="evenodd" d="M43 85a2 2 0 00-2 2v3h21v-3a2 2 0 00-2-2H43z" fill="#E25950"/><path fill-rule="evenodd" clip-rule="evenodd" d="M41 90h21v5H41v-5z" fill="#FCD669"/><path fill-rule="evenodd" clip-rule="evenodd" d="M42.313 90H41v5h1.313v-5zm18.375 0v5H62v-5h-1.313z" fill="#A68527" fill-opacity=".1"/><path fill-rule="evenodd" clip-rule="evenodd" d="M41 95v3a2 2 0 002 2h17a2 2 0 002-2v-3H41z" fill="#24B47E"/><path d="M54.514 91.458l-1.914.004a.264.264 0 01-.253-.175l-.593-1.734a.264.264 0 00-.254-.178.264.264 0 00-.253.178l-.591 1.733a.265.265 0 01-.253.176h-1.915a.265.265 0 00-.256.174.246.246 0 00.1.285l1.548 1.072c.093.064.132.18.096.284l-.591 1.734a.246.246 0 00.095.287.276.276 0 00.316-.003l1.548-.99a.276.276 0 01.313 0l1.55.99a.276.276 0 00.315.003.246.246 0 00.095-.287l-.593-1.734a.246.246 0 01.097-.284l1.55-1.072a.246.246 0 00.097-.284.268.268 0 00-.254-.179z" fill="#333"/><path fill="#ea2c3f" d="M91 100a2 2 0 002-2v-6H72v6a2 2 0 002 2z"/><path fill="#f6f9fc" d="M72 93v-6a2 2 0 012-2h17a2 2 0 012 2v6z"/><path fill="#8898aa" d="M74 85h17a2 2 0 012 2v6h-1v-6a1 1 0 00-1-1H74a1 1 0 00-1 1v6h-1v-6a2 2 0 012-2z" opacity=".2"/><path fill="#e25950" d="M93 92v6a2 2 0 01-2 2H74a2 2 0 01-2-2v-6zm-7.35-2.43h.48v-.66h-.71v-1h.23v-.65h-1.83v.66h.23v1h-.51v-1.71h.23v-.66h-2.54v.66h.23v1.7H81v-1h.23v-.65h-1.88v.66h.23v1h-.71v.66h.48v1.87h6.31m-3.54-2.54v-.55a.38.38 0 01.76 0v.55z"/><path fill="#ffdd03" d="M82.54 93.09a1.25 1.25 0 111.21-1.25 1.25 1.25 0 01-1.21 1.25z"/><path fill="#f6f9fc" d="M82.5 92.34a.5.5 0 01-.5-.5.5.5 0 01.5-.5.5.5 0 010 1z"/><path fill="#ffdd03" d="M82 92.64v2h-1v1h2v-3h-1z"/><path d="M105 85h17a2 2 0 012 2v5.5h-21V87a2 2 0 012-2z" fill="#f6f9fc"/><path d="M122 86a1 1 0 011 1v5.5h1V87a2 2 0 00-2-2h-17a2 2 0 00-2 2v5.5h1V87a1 1 0 011-1h17" fill="#eaeef3"/><path d="M107.5 92.5a4 4 0 018 0zm4 0H103V98a2 2 0 002 2h17a2 2 0 002-2v-5.5h-4.5" fill="#e25950"/><path d="M115.5 92.5a4 4 0 01-8 0z" fill="#fff"/><g data-name="Layer 2"><g data-name="Layer 1"><path fill="#f6f9fc" d="M134 89h21v7h-21z"/><path d="M135.995 85A1.992 1.992 0 00134 87v2h21v-2a2.003 2.003 0 00-1.995-2z" fill="#e25950"/><path fill="#43458b" d="M134 90h21v5h-21z"/><path data-name="Rectangle-34" d="M134 96v2a2.003 2.003 0 001.995 2h17.01A1.992 1.992 0 00155 98v-2z" fill="#24b47e"/></g></g><path d="M184 85h-17a2 2 0 00-2 2v11a2 2 0 002 2h17a2 2 0 002-2V87a2 2 0 00-2-2z" fill="#555abf"/><path fill="#f6f9fc" d="M165 89h10v2h-10z"/><path fill="#f6f9fc" d="M171 85v10h-2V85zm4 2h11v2h-11z"/><path fill="#eaeef3" d="M185 87h1v2h-1z"/><path fill="#f6f9fc" d="M175 91h11v2h-11z"/><path fill="#eaeef3" d="M185 91h1v2h-1z"/><path fill="#f6f9fc" d="M165 95h21v2h-21z"/><path fill="#eaeef3" d="M185 95h1v2h-1z"/><g data-name="Layer 2"><g data-name="Layer 1"><path d="M198.006 85A2 2 0 00196 86.992v11.016a1.992 1.992 0 002.006 1.992H203V85zM210 85v15h4.994A2 2 0 00217 98.008V86.992A1.992 1.992 0 00214.994 85z" fill="#45b2e8"/><path fill="#f6f9fc" d="M203 85h7v15h-7z"/><path d="M206.5 94a1.5 1.5 0 111.5-1.5 1.502 1.502 0 01-1.5 1.5zm0-2a.5.5 0 10.5.5.5.5 0 00-.5-.5z" fill="#24b47e"/><path fill="#eaeef3" d="M203 100v-1.001h7v1zm0-14v-1h7v1z"/></g></g><rect x="228" y="86" width="19" height="13" rx="1.77" fill="#0172c6"/><path d="M245.23 86a1.77 1.77 0 011.77 1.77v9.46a1.77 1.77 0 01-1.77 1.77h-15.46a1.77 1.77 0 01-1.77-1.77v-9.46a1.77 1.77 0 011.77-1.77h15.46m0-1h-15.46a2.77 2.77 0 00-2.77 2.77v9.46a2.77 2.77 0 002.77 2.77h15.46a2.77 2.77 0 002.77-2.77v-9.46a2.77 2.77 0 00-2.77-2.77z" fill="#e25950"/><path fill="#fcd669" d="M238 96h-1l-2-2h5l-2 2z"/><path fill="#9cdbff" d="M238 89h-1l-2.17 2.35L235 93h5l.21-1.58L238 89z"/><path fill="#f6f9fc" d="M235.5 94h1l-1-2v2z"/><path d="M238 92a4.38 4.38 0 011 3" fill="none" stroke="#0a9362" stroke-miterlimit="10" stroke-width=".5"/><path d="M237.5 89.19c1 .67 2.5 2 2.5 3.31s-1.52 2.63-2.5 3.31c-1-.67-2.5-2-2.5-3.31s1.52-2.63 2.5-3.31m0-1.19s-3.5 2-3.5 4.5 3.5 4.5 3.5 4.5 3.5-2 3.5-4.5-3.5-4.5-3.5-4.5z" fill="#e25950"/><circle cx="238" cy="92" r="1" fill="#0a9362"/><path fill-rule="evenodd" clip-rule="evenodd" d="M261.167 85a2 2 0 00-2 2v11a2 2 0 002 2h14.666a2 2 0 002-2V87a2 2 0 00-2-2h-14.666z" fill="#24B47E"/><path d="M258 97.49v-9.98l.001-.095c.044-1.518 1.343-2.431 2.647-1.893l18.338 6.978-3.096 1.178-15.214 5.79c-1.332.548-2.63-.352-2.675-1.891l-.001-.088z" fill="#fff"/><path fill-rule="evenodd" clip-rule="evenodd" d="M259.167 97.49V87.453c.02-.649.5-.998 1.09-.755L275.5 92.5l-15.243 5.8c-.59.244-1.07-.093-1.09-.752v-.059z" fill="#FCD669"/><path fill-rule="evenodd" clip-rule="evenodd" d="M259.942 99.36a2.595 2.595 0 01-.775-1.87v-9.98c0-.741.3-1.41.775-1.87.05.03.101.065.154.107L268.5 92.5l-8.404 6.754a1.191 1.191 0 01-.154.106z" fill="#333"/><path fill-rule="evenodd" clip-rule="evenodd" d="M259.354 98.477a2.67 2.67 0 01-.187-.988v-9.978c0-.422.096-.82.267-1.17l7.316 6.159c-3.772 3.23-6.238 5.222-7.396 5.977z" fill="#E25950"/><g data-name="Layer 2"><g data-name="Layer 1"><path d="M291 85h17a2 2 0 012 2v11a2 2 0 01-2 2h-17a2 2 0 01-2-2V87a2 2 0 012-2z" fill="#e25950"/><path d="M299.31 92.4a2.311 2.311 0 011.77-1.903c1.389-.542 2.732.89 2.91 1.681-.054.046-.147-.023-.27-.093a.492.492 0 00-.56-.032c-.384.259-.466.476-.916.632a1.226 1.226 0 01-1.247-.329 1.22 1.22 0 00-1.686.044m-.271.441a2.31 2.31 0 01-2.55.5c-1.441-.379-1.686-2.326-1.365-3.071.159-.013.136.573.598.589a2.813 2.813 0 00.41-.018 1.552 1.552 0 01.702.046 1.224 1.224 0 01.816.998 1.22 1.22 0 001.389.956m.36.091a2.311 2.311 0 01-.357 2.574c-.827 1.239-2.748.837-3.347.291.039-.156.585.057.75-.374s.11-.657.39-1.043a1.225 1.225 0 011.209-.446 1.22 1.22 0 001.355-1.002m.114-.311a2.311 2.311 0 012.357 1.094c.943 1.153-.003 2.873-.7 3.287-.138-.083.226-.543-.14-.828s-.595-.296-.882-.677a1.224 1.224 0 01-.073-1.287 1.22 1.22 0 00-.562-1.589m-.541-.119a2.308 2.308 0 01-1.223-2.292c-.06-1.489 1.731-2.293 2.537-2.203.06.149-.508.297-.388.744s.298.596.298 1.072a1.225 1.225 0 01-.716 1.072 1.218 1.218 0 00-.507 1.607" fill="#fff"/></g></g><g data-name="Layer 2"><g data-name="Layer 1"><path d="M321.995 85A1.997 1.997 0 00320 87.005V90h21v-2.995A2.006 2.006 0 00339.005 85z" fill="#45b2e8"/><path fill="#f6f9fc" d="M320 90h21v5h-21z"/><path data-name="Rectangle-34" d="M320 95v2.995a2.006 2.006 0 001.995 2.005h17.01A1.997 1.997 0 00341 97.995V95z" fill="#45b2e8"/><path fill="#eaeef3" d="M320 90h1.001v5H320zm19.999 0H341v5h-1.001z"/><path d="M330 92.5a.5.5 0 11.5.5.5.5 0 01-.5-.5zm-3-1a.5.5 0 11.5.5.5.5 0 01-.5-.5zm0 2a.5.5 0 11.5.5.5.5 0 01-.5-.5zm6 0a.5.5 0 11.5.5.5.5 0 01-.5-.5zm0-2a.5.5 0 11.5.5.5.5 0 01-.5-.5z" fill="#45b2e8"/></g></g><g fill="none"><path d="M352.995 85A1.997 1.997 0 00351 87.005V90h21v-2.995A2.006 2.006 0 00370.005 85h-17.01z" fill="#E25950"/><path d="M372 90h-21v5h21v-5z" fill="#F6F9FC"/><path d="M351 95v2.995a2.006 2.006 0 001.995 2.005h17.01A1.996 1.996 0 00372 97.995V95h-21z" fill="#43458B"/><path d="M359.202 89h5v4.5a2.5 2.5 0 01-2.5 2.5 2.5 2.5 0 01-2.5-2.5V89z" fill="#F6F9FC"/><path opacity=".1" d="M371 95.024V90.01h1v5.013h-1zm-20-5.014h1v5.013h-1V90.01z" fill="#555ABF"/><path d="M360.924 89.985h-1.072v1.072h1.072v-1.072z" fill="#F6F9FC"/><path d="M361.994 89.985h-1.072v1.072h1.072v-1.072z" fill="#E25950"/><path d="M363.063 89.985h-1.072v1.072h1.072v-1.072z" fill="#F6F9FC"/><path d="M364.161 89.985h-1.1v1.072h1.1v-1.072zm-3.237 1.065h-1.072v1.07h1.072v-1.07z" fill="#E25950"/><path d="M361.994 91.05h-1.072v1.07h1.072v-1.07z" fill="#F6F9FC"/><path d="M363.063 91.05h-1.071v1.07h1.071v-1.07z" fill="#E25950"/><path d="M364.133 91.05h-1.072v1.07h1.072v-1.07zm-3.209 1.064h-1.072v1.071h1.072v-1.071z" fill="#F6F9FC"/><path d="M361.994 92.113h-1.072v1.072h1.072v-1.072z" fill="#E25950"/><path d="M363.063 92.114h-1.072v1.071h1.072v-1.071z" fill="#F6F9FC"/><path d="M364.161 92.113h-1.1v1.072h1.1v-1.072zm-3.237 1.064h-1.072v1.073h1.072v-1.073z" fill="#E25950"/><path d="M361.994 93.178h-1.072v1.071h1.072v-1.071z" fill="#F6F9FC"/><path d="M363.063 93.177h-1.071v1.073h1.071v-1.073z" fill="#E25950"/><path d="M364.133 93.178h-1.072v1.071h1.072v-1.071zm-3.209 1.058h-1.072v1.072h1.072v-1.072z" fill="#F6F9FC"/><path d="M361.994 94.236h-1.072v1.48h1.072v-1.48z" fill="#E25950"/><path d="M363.063 94.236h-1.072v1.072h1.072v-1.072z" fill="#F6F9FC"/><path d="M364.133 94.236h-1.072v1.072h1.072v-1.072z" fill="#E25950"/><path d="M364.134 89.585v3.848a2.138 2.138 0 01-4.275 0v-3.848h4.275zm.855-.855h-5.985v4.703a2.993 2.993 0 002.993 2.992 2.992 2.992 0 002.992-2.992V88.73z" fill="#E25950"/><path d="M359 88.956l.602-.556.598.556v1.049H359v-1.049z" fill="#43458B"/><path d="M360.193 88.956l.602-.556.598.556v1.049h-1.2v-1.049z" fill="#0172C6"/><path d="M361.384 88.956l.603-.556.598.556v1.049h-1.201v-1.049z" fill="#43458B"/><path d="M362.577 88.956l.603-.556.598.556v1.049h-1.201v-1.049z" fill="#0172C6"/><path d="M363.769 88.956l.602-.556.598.556v1.049h-1.2v-1.049z" fill="#43458B"/></g><g data-name="Layer 2"><g data-name="Layer 1"><path d="M383.995 85A1.991 1.991 0 00382 86.998V93h21v-6.002A2.002 2.002 0 00401.005 85z" fill="#43458b"/><path data-name="Rectangle-295" d="M382 93v4.994a2.006 2.006 0 001.995 2.006h17.01A1.993 1.993 0 00403 97.994V93z" fill="#e25950"/><path fill="#fff" d="M388 90h9v5h-9z"/><path data-name="Rectangle-927" d="M396.902 95h-8.804c.454-1.141 2.408-2 4.401-2s3.947.859 4.402 2zm-5.402-4h2v1l-.983 1-1.017-1z" fill="#24b47e"/><path d="M390 92h1v1h-1zm4 0h1v1h-1z" fill="#fcd669"/><path data-name="Rectangle-930" d="M389 91h1v1h-1zm6 0h1v1h-1z" fill="#fcd669"/></g></g><g data-name="Layer 2"><g data-name="Layer 1"><path d="M414.995 85A1.997 1.997 0 00413 87.005V90h21v-2.995A2.006 2.006 0 00432.005 85z" fill="#e25950"/><path fill="#f6f9fc" d="M413 90h21v5h-21z"/><path data-name="Rectangle-34" d="M413 95v2.995a2.006 2.006 0 001.995 2.005h17.01A1.997 1.997 0 00434 97.995V95z" fill="#24b47e"/><path fill="#eaeef3" d="M413 90h1.001v5H413zm19.999 0H434v5h-1.001z"/></g></g><g data-name="Layer 2"><g data-name="Layer 1"><path d="M444 92v6.002a2.002 2.002 0 001.995 1.998h17.01A1.991 1.991 0 00465 98.002V92z" fill="#f6f9fc"/><path d="M444.5 92.5v5.502a1.502 1.502 0 001.495 1.498h17.01a1.491 1.491 0 001.495-1.498V92.5z" fill="none" stroke="#eaeef3"/><path d="M445.995 85A1.991 1.991 0 00444 86.998V93h21v-6.002A2.002 2.002 0 00463.005 85z" fill="#e25950"/></g></g><g data-name="Layer 2"><g data-name="Layer 1"><path fill="#f6f9fc" d="M481 85h9v15h-9V85z"/><path data-name="Shape" d="M481 100v-1h9v1zm0-15h9v1h-9z" fill="#8898aa" opacity=".1" style="isolation:isolate"/><path data-name="Shape" d="M477 85h5v15h-5a2 2 0 01-2-2V87a2 2 0 012-2z" fill="#24b47e"/><path data-name="Shape" d="M494 100h-5V85h5a2 2 0 012 2v11a2 2 0 01-2 2z" fill="#f79a59"/></g></g><g data-name="Layer 2"><g data-name="Layer 1"><path d="M507.493 85A1.493 1.493 0 00506 86.5V88h21v-1.5a1.5 1.5 0 00-1.493-1.5z" fill="#43458b"/><path fill="#f6f9fc" d="M507.001 88h18.998v9h-18.998z"/><path d="M518.125 92.5L517 91h-1l-1.125 1.5L516 94h1zm.75 0L520 94h-2l-1.5 2.5L515 94h-2l1.125-1.5L513 91h2l1.5-2.5L518 91h2z" fill="#43458b"/><path data-name="Rectangle-34" d="M506 97v1.5a1.5 1.5 0 001.493 1.5h18.014A1.493 1.493 0 00527 98.5V97z" fill="#43458b"/><path fill="#eaeef3" d="M506 88h1.001v9H506zm19.999 0H527v9h-1.001z"/></g></g><rect width="21" height="15" rx="2" fill="#e25950" x="10" y="110"/><path fill="#f6f9fc" fill-rule="evenodd" d="M19.57 122.98l1.19-1.62-1.97-2.48 2.85-1.57 2.7.63.5-.87.64-3.09.83-.1.25-.44-1.95.04-.63 3.09-2.5-.87-.97-3.01h-1l-3 1-.5-.67h-.5l1 1.68 3-1.01.5 2.51-2.5 2.08.38 1.02 1.66 1.99.27.41-.46.7.21.58z"/><g data-name="Layer 2"><g data-name="Layer 1"><path d="M42.995 110A1.997 1.997 0 0041 112.005V115h21v-2.995A2.006 2.006 0 0060.005 110z" fill="#f79a59"/><path fill="#fff" d="M41 115h21v5H41z"/><path d="M41 120v2.995A2.006 2.006 0 0042.995 125h17.01A1.997 1.997 0 0062 122.995V120z" fill="#24b47e" data-name="Rectangle-34"/><path d="M51.5 119a1.5 1.5 0 111.5-1.5 1.502 1.502 0 01-1.5 1.5zm0-2a.5.5 0 10.5.5.5.5 0 00-.5-.5z" fill="#6772e5"/><path fill="#eaeef3" d="M41 115h1.001v5H41zm19.999 0H62v5h-1.001z"/></g></g><g data-name="Layer 2"><g data-name="Layer 1"><path d="M73.995 110A1.997 1.997 0 0072 112.005V115h21v-2.995A2.006 2.006 0 0091.005 110z" fill="#e25950"/><path fill="#fff" d="M72 115h21v5H72z"/><path data-name="Rectangle-34" d="M72 120v2.995A2.006 2.006 0 0073.995 125h17.01A1.997 1.997 0 0093 122.995V120z"/><path d="M80 116h1v3h-1zm2 0h1v3h-1zm2 0h1v3h-1z" fill="#24b47e"/><path fill="#eaeef3" d="M72 115h1.001v5H72zm19.999 0H93v5h-1.001z"/></g></g><g data-name="Layer 2"><g data-name="Layer 1"><path d="M104.995 110a1.997 1.997 0 00-1.995 2.005V115h21v-2.995a2.006 2.006 0 00-1.995-2.005z" fill="#24b47e"/><path fill="#fff" d="M103 115h21v5h-21z"/><path data-name="Rectangle-34" d="M103 120v2.995a2.006 2.006 0 001.995 2.005h17.01a1.997 1.997 0 001.995-2.005V120z" fill="#e25950"/><circle cx="113.5" cy="117.5" r="1" fill="none" stroke="#e25950"/><path d="M104 113.5a.5.5 0 11.5.5.5.5 0 01-.5-.5zm2 0a.5.5 0 11.5.5.5.5 0 01-.5-.5zm2 0a.5.5 0 11.5.5.5.5 0 01-.5-.5zm2 0a.5.5 0 11.5.5.5.5 0 01-.5-.5zm2 0a.5.5 0 11.5.5.5.5 0 01-.5-.5zm2 0a.5.5 0 11.5.5.5.5 0 01-.5-.5zm2 0a.5.5 0 11.5.5.5.5 0 01-.5-.5zm2 0a.5.5 0 11.5.5.5.5 0 01-.5-.5zm2 0a.5.5 0 11.5.5.5.5 0 01-.5-.5zm2 0a.5.5 0 11.5.5.5.5 0 01-.5-.5z" fill="#fff" opacity=".7" style="isolation:isolate"/><path data-name="Rectangle-962" d="M104 121.5a.5.5 0 11.5.5.5.5 0 01-.5-.5zm2 0a.5.5 0 11.5.5.5.5 0 01-.5-.5zm2 0a.5.5 0 11.5.5.5.5 0 01-.5-.5zm2 0a.5.5 0 11.5.5.5.5 0 01-.5-.5zm2 0a.5.5 0 11.5.5.5.5 0 01-.5-.5zm2 0a.5.5 0 11.5.5.5.5 0 01-.5-.5zm2 0a.5.5 0 11.5.5.5.5 0 01-.5-.5zm2 0a.5.5 0 11.5.5.5.5 0 01-.5-.5zm2 0a.5.5 0 11.5.5.5.5 0 01-.5-.5zm2 0a.5.5 0 11.5.5.5.5 0 01-.5-.5z" fill="#fff" opacity=".5" style="isolation:isolate"/><path fill="#eaeef3" d="M103 115h1.001v5H103zm19.999 0H124v5h-1.001z"/></g></g><rect width="21" height="15" rx="2" fill="#0172c6" x="134" y="110"/><path fill="#f6f9fc" d="M155 116h-13.42v-6h-3v6H134v3h4.58v6h3v-6H155v-3z"/><path fill="#e25950" d="M155 117h-14.42v-7h-1v7H134v1h5.58v7h1v-7H155v-1z"/><g data-name="Layer 2"><g data-name="Layer 1"><path fill="#f6f9fc" d="M171 110h9v15h-9v-15z"/><path data-name="Shape" d="M171 125v-1h9v1zm0-15h9v1h-9z" fill="#8898aa" opacity=".1" style="isolation:isolate"/><path data-name="Shape" d="M167 110h5v15h-5a2 2 0 01-2-2v-11a2 2 0 012-2z" fill="#24b47e"/><path data-name="Shape" d="M184 125h-5v-15h5a2 2 0 012 2v11a2 2 0 01-2 2z" fill="#e25950"/></g></g><rect width="21" height="15" rx="2" fill="#f6f9fc" x="196" y="110"/><path d="M208 112.5c0 .83-1.5 2.5-1.5 2.5s-1.5-1.67-1.5-2.5a1.5 1.5 0 013 0z" fill="#e25950"/><path d="M215 111a1 1 0 011 1v11a1 1 0 01-1 1h-17a1 1 0 01-1-1v-11a1 1 0 011-1h17m0-1h-17a2 2 0 00-2 2v11a2 2 0 002 2h17a2 2 0 002-2v-11a2 2 0 00-2-2z" fill="#eaeef3"/><path d="M208.17 117.11l8.52-6.17A2 2 0 00215 110h-.42l-8.14 5.89L198 110a2 2 0 00-1.81 1.16l8.53 6-8.72 6.25a2 2 0 001.4 1.49l9-6.55 9.3 6.5a2 2 0 001.3-1.59z" fill="#e25950"/><g data-name="Layer 2"><g data-name="Layer 1"><path d="M247.223 110.428a1.058 1.058 0 01-.091.068L237.5 116l-9.632-5.504a1.023 1.023 0 01-.091-.068A1.989 1.989 0 00227 112v1l8 4.5-8 4.5v1a1.989 1.989 0 00.777 1.572 1.023 1.023 0 01.091-.068L237.5 119l9.632 5.504a1.058 1.058 0 01.091.068A1.989 1.989 0 00248 123v-1l-8-4.5 8-4.5v-1a1.989 1.989 0 00-.777-1.572z" fill="#fcd669"/><path d="M237.5 116l9.632-5.504a1.058 1.058 0 00.091-.068A1.98 1.98 0 00246 110h-17a1.98 1.98 0 00-1.223.428 1.023 1.023 0 00.091.068zm0 3l-9.632 5.504a1.023 1.023 0 00-.091.068A1.98 1.98 0 00229 125h17a1.98 1.98 0 001.223-.428 1.058 1.058 0 00-.091-.068z" fill="#24b47e"/><path d="M227 113v9l8-4.5-8-4.5zm21 9v-9l-8 4.5 8 4.5z"/></g></g><g data-name="Layer 2"><g data-name="Layer 1"><path fill="#f6f9fc" d="M258 115h21v5h-21z"/><path d="M279 112.005a2.006 2.006 0 00-1.995-2.005h-17.01a1.975 1.975 0 00-1.325.513.78.78 0 01.135.063L265 115h14z"/><path d="M258.675 124.485a1.975 1.975 0 001.32.515h17.01a1.997 1.997 0 001.995-2.005V120h-14l-6.194 4.424a.772.772 0 01-.131.06z" fill="#24b47e"/><path d="M265 115l-6.194-4.424a.78.78 0 00-.135-.063 1.995 1.995 0 00-.671 1.493v10.99a1.996 1.996 0 00.675 1.49.772.772 0 00.131-.06L265 120l3.5-2.5z" fill="#e25950"/><circle cx="261.5" cy="117.5" r="1.5" fill="#f6f9fc"/><path fill="#eaeef3" d="M278 114.999h1v5h-1z"/></g></g><g data-name="Layer 2"><g data-name="Layer 1"><path d="M291 110h17a2 2 0 012 2v11a2 2 0 01-2 2h-17a2 2 0 01-2-2v-11a2 2 0 012-2z" fill="#f6f9fc"/><path data-name="Shape" d="M308 125h-17a2 2 0 01-2-2v-11a2 2 0 012-2h17a2 2 0 012 2v11a2 2 0 01-2 2zm1-13a1 1 0 00-1-1h-17a1 1 0 00-1 1v11a1 1 0 001 1h17a1 1 0 001-1z" fill="#8898aa" opacity=".2" style="isolation:isolate"/><path data-name="Shape" d="M299.5 114a3.5 3.5 0 11-3.5 3.5 3.5 3.5 0 013.5-3.5z" fill="#e25950"/></g></g><path fill-rule="evenodd" clip-rule="evenodd" d="M320 114v7h21v-7h-21z" fill="#F6F9FC"/><path fill-rule="evenodd" clip-rule="evenodd" d="M321.313 114H320v7h1.313v-7zm18.375 0v7H341v-7h-1.313z" fill="#EAEEF3"/><path fill-rule="evenodd" clip-rule="evenodd" d="M322 110a2 2 0 00-2 2v2h21v-2a2 2 0 00-2-2h-17z" fill="#333"/><path fill-rule="evenodd" clip-rule="evenodd" d="M320 115v5h21v-5h-21z" fill="#E25950"/><path fill-rule="evenodd" clip-rule="evenodd" d="M320 121v2a2 2 0 002 2h17a2 2 0 002-2v-2h-21z" fill="#159570"/><path d="M331 112.172A7.657 7.657 0 01331 123a7.657 7.657 0 010-10.828z" fill="#333"/><path d="M332.963 115.529a7.623 7.623 0 00-1.963-3.357 7.622 7.622 0 00-1.963 3.357c.586.457.963 1.17.963 1.971 0 .818-.393 1.545-1 2a7.62 7.62 0 002 3.5 7.622 7.622 0 002-3.5 2.496 2.496 0 01-1-2c0-.8.377-1.514.963-1.971z" fill="#E25950"/><circle cx="331" cy="117.5" r=".5" fill="#F6F9FC"/><path d="M331 112.172a2.707 2.707 0 010 3.828 2.707 2.707 0 010-3.828zm0 6.828a2.828 2.828 0 010 4 2.828 2.828 0 010-4z" fill="#F6F9FC"/><g data-name="Layer 2"><g data-name="Layer 1"><rect width="21" height="15" rx="2" ry="2" fill="#e25950" x="351" y="110"/><path d="M364.5 121a.5.5 0 11.5-.5.5.5 0 01-.5.5zm-6-6a.5.5 0 11.5-.5.5.5 0 01-.5.5zm6 0a.5.5 0 11.5-.5.5.5 0 01-.5.5zm-6 6a.5.5 0 11.5-.5.5.5 0 01-.5.5zm3-7a.5.5 0 11.5-.5.5.5 0 01-.5.5zm-4 4a.5.5 0 11.5-.5.5.5 0 01-.5.5zm4 4a.5.5 0 11.5-.5.5.5 0 01-.5.5zm4-4a.5.5 0 11.5-.5.5.5 0 01-.5.5zm-4 2a2.5 2.5 0 112.5-2.5 2.5 2.5 0 01-2.5 2.5z" fill="#fedc32"/></g></g><path d="M382 113.75h21v7.5h-21v-7.5z" fill="#E25950"/><path fill-rule="evenodd" clip-rule="evenodd" d="M382 112.5v1.25h21v-1.25c0-1.38-1.175-2.5-2.625-2.5h-15.75c-1.45 0-2.625 1.12-2.625 2.5zm2.625 12.5h15.75c1.45 0 2.625-1.12 2.625-2.5v-1.25h-21v1.25c0 1.38 1.175 2.5 2.625 2.5z" fill="#43458B"/><path fill-rule="evenodd" clip-rule="evenodd" d="M389.875 115h-2.625v1.25h2.625V115zm7.875 2.5h-10.5v2.5h10.5v-2.5zm-6.563-2.5h2.626v1.25h-2.626V115zm6.563 0h-2.625v1.25h2.625V115z" fill="#fff"/><g data-name="Layer 2"><g data-name="Layer 1"><rect width="21" height="15" rx="3" ry="3" fill="#fcd669" x="413" y="110"/><rect x="413.5" y="110.5" width="20" height="14" rx="3" ry="3" fill="none" stroke="#000" stroke-opacity=".08"/><path d="M434 113l-18 12h-2.001a.998.998 0 01-.999-1.008V122l18-12h2.001a.998.998 0 01.999 1.008z"/><path data-name="Rectangle-87" d="M414.992 110a1.99 1.99 0 00-1.992 2v8l15-10z" fill="#24b47e"/><path data-name="Rectangle-87" d="M434 123a1.997 1.997 0 01-1.992 2H419l15-10z" fill="#e25950"/><circle cx="420.5" cy="119.5" r="1.5" fill="#fff"/><circle cx="426.5" cy="115.5" r="1.5" fill="#fff"/></g></g><g data-name="Layer 2"><g data-name="Layer 1"><path fill="#f6f9fc" d="M444 113h21v9h-21z"/><path d="M445.493 110a1.493 1.493 0 00-1.493 1.5v1.5h21v-1.5a1.5 1.5 0 00-1.493-1.5z" fill="#43458b"/><path fill="#e25950" d="M444 114h21v7h-21z"/><path data-name="Rectangle-34" d="M444 122v1.5a1.5 1.5 0 001.493 1.5h18.014a1.493 1.493 0 001.493-1.5V122z" fill="#43458b"/><path d="M449.5 119a1.5 1.5 0 10-1.5-1.5 1.5 1.5 0 001.5 1.5z" fill="#fff"/></g></g><g data-name="Layer 2"><g data-name="Layer 1"><path d="M477 110h17a2 2 0 012 2v11a2 2 0 01-2 2h-17a2 2 0 01-2-2v-11a2 2 0 012-2z" fill="#f6f9fc"/><path d="M476.995 110h17.01a2 2 0 011.995 1.992v11.016a1.994 1.994 0 01-1.995 1.992h-17.01a2 2 0 01-1.995-1.992v-11.016a1.994 1.994 0 011.995-1.992zm0 1a.997.997 0 00-.995.998v11.004a1 1 0 00.995.998h17.01a.997.997 0 00.995-.998v-11.004a1 1 0 00-.995-.998z" fill="#dfe5eb"/><path d="M482 117.5a3.5 3.5 0 116.663 1.5h-6.326a3.486 3.486 0 01-.337-1.5z" fill="#e25950"/><path d="M489 113.207V113h1.207l1.293 1.793V115h-1.207zm-9.5 1.586l1.293-1.793H482v.207L480.707 115H479.5zm9.5 7l1.293-1.793h1.207v.207L490.207 122H489zm-9.5-1.586V120h1.207l1.293 1.793V122h-1.207z" fill-opacity=".9"/><path d="M487.175 116.736a1.733 1.733 0 011.773 1.37 3.501 3.501 0 01-3.378 2.893 3.668 3.668 0 01-3.163-1.86 3.485 3.485 0 01-.407-1.609 3.28 3.28 0 01.392-1.53c.002.047.004.098.004.154 0 .674-.003 2.084 1.692 2.084s1.646-1.502 3.087-1.502z" fill="#43458b"/></g></g><g data-name="Layer 2"><g data-name="Layer 1"><path d="M508 110v5h19v-2.995a1.999 1.999 0 00-1.997-2.005z" fill="#24b47e"/><path fill="#f6f9fc" d="M507 115h20v5h-20z"/><path data-name="Rectangle-34" d="M508 120v5h17.003a1.999 1.999 0 001.997-2.005V120z" fill="#e25950"/><path d="M514 115v5l-5.995 5a1.996 1.996 0 01-2.005-1.992v-11.016a2 2 0 012.005-1.992z" data-name="Rectangle-295"/><path fill="#eaeef3" d="M525.999 115H527v5h-1.001z"/></g></g><g data-name="Layer 2"><g data-name="Layer 1"><rect width="21" height="15" rx="2" ry="2" fill="#1cafc8" x="10" y="135"/><circle cx="20.5" cy="142.5" r="3.5" fill="#fcd669"/><path fill="#047a9d" fill-opacity=".199" opacity=".78" style="isolation:isolate" d="M11 138h4v9h-4z"/><path d="M12 139h2v1h-2zm0 2h2v1h-2zm0 2h2v1h-2zm0 2h2v1h-2z" fill="#fcd669"/></g></g><g data-name="Layer 2"><g data-name="Layer 1"><path d="M42.995 135A1.992 1.992 0 0041 137v2h21v-2a2.003 2.003 0 00-1.995-2z" fill="#e25950"/><path fill="#43458b" d="M41 139h21v7H41z"/><path data-name="Rectangle-34" d="M41 146v2a2.003 2.003 0 001.995 2h17.01A1.992 1.992 0 0062 148v-2z" fill="#e25950"/><circle cx="51.5" cy="142.5" r="1.5" fill="#fff"/></g></g><g data-name="Layer 2"><g data-name="Layer 1"><path d="M73.995 135A1.992 1.992 0 0072 137v2h21v-2a2.003 2.003 0 00-1.995-2z" fill="#e25950"/><path fill="#f6f9fc" d="M72 139h21v7H72z"/><path data-name="Rectangle-34" d="M72 146v2a2.003 2.003 0 001.995 2h17.01A1.992 1.992 0 0093 148v-2z" fill="#e25950"/><path d="M83 144v1h-1v-1h-2l2.5-4 2.5 4z" fill="#24b47e"/><path fill="#eaeef3" d="M72 139h1.001v7H72zm19.999 0H93v7h-1.001z"/></g></g><g data-name="Layer 2"><g data-name="Layer 1"><rect width="21" height="15" rx="2" ry="2" fill="#45b2e8" x="103" y="135"/><path fill="#fff" d="M113.5 137l-5.5 11h11l-5.5-11z"/><path d="M113.5 140l-4 8h8l-4-8z"/><path data-name="Rectangle-1065" fill="#fcd669" d="M113.5 143.8L108 148h11l-5.5-4.2z"/></g></g><path d="M136 135a2 2 0 00-2 2v6h21v-6a2 2 0 00-2-2z" fill="#555abf"/><path d="M134 143v5a2 2 0 002 2h17a2 2 0 002-2v-5z" fill="#e25950"/><path d="M140.44 140.74h-.07v-.38a1.26 1.26 0 00.54-1 1.29 1.29 0 00-1.77-1.23.39.39 0 00-.14-.41l-.07-.24.28.08V137l-.28.08.07-.26h-.52l.08.28-.28-.1v.54l.28-.08-.07.24a.43.43 0 00-.13.41 1.29 1.29 0 00-1.77 1.21 1.26 1.26 0 00.54 1v.38h-.07a.2.2 0 000 .4h3.38a.2.2 0 000-.4z" fill="#fcd669"/><path d="M167.625 135h15.75c1.45 0 2.625 1.12 2.625 2.5v10c0 1.38-1.175 2.5-2.625 2.5h-15.75c-1.45 0-2.625-1.12-2.625-2.5v-10c0-1.38 1.175-2.5 2.625-2.5z" fill="#F4B32E"/><path fill="#E37C4C" d="M168.938 136.25h2.625v12.5h-2.625z"/><path fill-rule="evenodd" clip-rule="evenodd" d="M183.688 136.25h-10.814v12.5h10.813a1 1 0 001-1v-10.5a1 1 0 00-1-1zm-8.188 1.25h-1.313v1.25h1.313v-1.25zm6.563 0h1.312v1.25h-1.313v-1.25zm-6.563 8.75h-1.313v1.25h1.313v-1.25zm6.563 0h1.312v1.25h-1.313v-1.25zm0-5H175.5v2.5h6.563v-2.5z" fill="#B1372F"/><g data-name="Layer 2"><g data-name="Layer 1"><path d="M197.995 135a1.997 1.997 0 00-1.995 2.005V140h21v-2.995a2.006 2.006 0 00-1.995-2.005z" fill="#555abf"/><path fill="#f6f9fc" d="M196 140h21v5h-21z"/><path data-name="Rectangle-34" d="M196 145v2.995a2.006 2.006 0 001.995 2.005h17.01a1.997 1.997 0 001.995-2.005V145z" fill="#24b47e"/><path d="M206.5 141l-1.856 2.227c-.356.427-.2.773.356.773h3c.552 0 .713-.344.356-.773z"/><path fill="#eaeef3" d="M196 140h1.001v5H196zm19.999 0H217v5h-1.001z"/></g></g><path d="M229 135a2 2 0 00-2 2v3h21v-3a2 2 0 00-2-2z" fill="#fcd669"/><path fill="#24b47e" d="M227 140h21v5h-21z"/><path d="M227 145v3a2 2 0 002 2h17a2 2 0 002-2v-3z" fill="#e25950"/><g data-name="Layer 2"><g data-name="Layer 1"><path fill="#f6f9fc" d="M258 139h21v7h-21v-7z"/><path data-name="Shape" d="M278 146v-7h1v7zm-20-7h1v7h-1z" fill="#8898aa" opacity=".1" style="isolation:isolate"/><path data-name="Shape" d="M258 148v-3h21v3a2 2 0 01-2 2h-17a2 2 0 01-2-2z" fill="#45b2e8"/><path data-name="Shape" d="M279 137v3h-21v-3a2 2 0 012-2h17a2 2 0 012 2z" fill="#e25950"/></g></g><path d="M290.995 135a1.992 1.992 0 00-1.995 2v4h21v-4a2 2 0 00-1.995-2z" fill="#b1372f"/><path fill="#f8fafc" d="M289 141h21v3h-21z"/><path d="M289 144v4a2 2 0 001.995 2h17.01a1.992 1.992 0 001.995-2v-4z" fill="#b1372f"/><path fill="#eaeef3" d="M289 141h1.001v3H289zm19.999 0H310v3h-1.001z"/><rect width="21" height="15" rx="2" fill="#e25950" x="320" y="135"/><path fill="none" stroke="#24b47e" stroke-linecap="round" stroke-linejoin="round" d="M330.5 137.5l3 9-8-6h10l-8 6 3-9z"/><path fill-rule="evenodd" clip-rule="evenodd" d="M351 143v5a2 2 0 002 2h17a2 2 0 002-2v-5h-21z" fill="#F6F9FC"/><path fill-rule="evenodd" clip-rule="evenodd" d="M353 135a2 2 0 00-2 2v6h21v-6a2 2 0 00-2-2h-17z" fill="#E25950"/><path d="M370 150h-17a2 2 0 01-2-2v-5h1v5a1 1 0 001 1h17a1 1 0 001-1v-5h1v5a2 2 0 01-2 2z" fill="#EAEEF3"/><path fill-rule="evenodd" clip-rule="evenodd" d="M384 135a2 2 0 00-2 2v11a2 2 0 002 2h4.563v-15H384z" fill="#43458B"/><path fill-rule="evenodd" clip-rule="evenodd" d="M396.438 135v15H401a2 2 0 002-2v-11a2 2 0 00-2-2h-4.563z" fill="#E25950"/><path fill-rule="evenodd" clip-rule="evenodd" d="M388.563 135v15h7.875v-15h-7.877z" fill="#FCD669"/><path fill-rule="evenodd" clip-rule="evenodd" d="M396.438 135h-7.877v1.25h7.875V135zm-7.877 13.75V150h7.875v-1.25h-7.872z" fill="#A68527" fill-opacity=".1"/><path fill-rule="evenodd" clip-rule="evenodd" d="M389.875 140h5.25v3.125c0 1.38-1.175 2.5-2.625 2.5s-2.625-1.12-2.625-2.5V140z" fill="#E25950"/><path fill-rule="evenodd" clip-rule="evenodd" d="M392.5 145.625c-1.45 0-2.625-1.12-2.625-2.5v-.625h5.25v.625c0 1.38-1.175 2.5-2.625 2.5z" fill="#45B2E8"/><path fill-rule="evenodd" clip-rule="evenodd" d="M391.188 141.25h2.624l-1.312 2.5-1.313-2.5z" fill="#FCD669"/><g data-name="Layer 2"><g data-name="Layer 1"><path d="M415.006 135a2 2 0 00-2.006 1.992v11.016a1.992 1.992 0 002.006 1.992H420v-15z" fill="#f6f9fc"/><path d="M415 136a1 1 0 00-1 1v11a1 1 0 001 1h9v1h-9a2 2 0 01-2-2v-11a2 2 0 012-2h9v1z" fill="#8898aa" opacity=".2" style="isolation:isolate"/><path data-name="Rectangle-87" d="M432.14 135a2.1 2.1 0 011.86 2.276V143h-14v-8z" fill="#e25950"/><path data-name="Rectangle-87" d="M434 148.257a1.805 1.805 0 01-1.86 1.743H420v-7h14z" fill="#24b47e"/></g></g><g data-name="Layer 2"><g data-name="Layer 1"><rect width="21" height="15" rx="2" ry="2" fill="#fcd669" x="444" y="135"/><path d="M464 141.143l1-.143v-3.757l-1 .382-6.497 2.477-.47-.883L461.61 136l1.418-.997c-.011 0-.019-.003-.028-.003h-7l-.25 1-.75 3h-1l-.75-3-.25-1h-6.962l1.422 1 4.576 3.22-.47.882-6.566-2.504-.967-.368-.03-.259c0 .01-.003.019-.003.029v4l1 .143 6 .857v1l-6 .857-1 .143v4c0 .03.008.059.009.09l.024-.236.967-.37 6.566-2.503.47.883-4.457 3.136-1.422 1H453l.25-1 .75-3h1l.75 3 .25 1h6.913l-1.421-1-4.459-3.136.47-.883 6.497 2.477 1 .382V144l-1-.143-6-.857v-1zM454.5 145a2.5 2.5 0 112.5-2.5 2.5 2.5 0 01-2.5 2.5z" fill="#e25950"/></g></g><g data-name="Layer 2"><g data-name="Layer 1"><path d="M477.006 135a2 2 0 00-2.006 1.992v11.016a1.992 1.992 0 002.006 1.992H482v-15z" fill="#24b47e"/><path d="M489 135v15h4.994a2 2 0 002.006-1.992v-11.016a1.992 1.992 0 00-2.006-1.992z" fill="#e25950"/><path data-name="Rectangle-295" fill="#fcd669" d="M482 135h7v15h-7z"/></g></g><g data-name="Layer 2"><g data-name="Layer 1"><path d="M507.995 135a1.997 1.997 0 00-1.995 2.005V140h21v-2.995a2.006 2.006 0 00-1.995-2.005z" fill="#fcd669"/><path fill="#24b47e" d="M506 140h21v5h-21z"/><path data-name="Rectangle-34" d="M506 145v2.995a2.006 2.006 0 001.995 2.005h17.01a1.997 1.997 0 001.995-2.005V145z" fill="#e25950"/><path d="M520.633 141l-2.625.006a.364.364 0 01-.347-.253l-.813-2.497a.364.364 0 00-.695 0l-.811 2.496a.364.364 0 01-.347.253h-2.626a.364.364 0 00-.215.661l2.124 1.544a.364.364 0 01.132.409l-.81 2.497a.364.364 0 00.562.41l2.124-1.426a.364.364 0 01.43 0l2.125 1.425a.364.364 0 00.563-.409l-.813-2.497a.364.364 0 01.132-.41l2.125-1.543a.364.364 0 00.134-.409.37.37 0 00-.35-.257z" fill="#fff"/></g></g><path fill-rule="evenodd" clip-rule="evenodd" d="M12 160a2 2 0 00-2 2v11a2 2 0 002 2h5v-15h-5zm17 0a2 2 0 012 2v11a2 2 0 01-2 2h-5v-15h5z" fill="#E25950"/><path fill-rule="evenodd" clip-rule="evenodd" d="M13.5 166.375a1.688 1.688 0 100-3.375 1.688 1.688 0 000 3.375zm-1.688 1.125h1.125v4.5h-1.124v-4.5zm3.375 0h-1.124v4.5h1.125v-4.5z" fill="#FCD669"/><path fill-rule="evenodd" clip-rule="evenodd" d="M17 160h7v15h-7v-15z" fill="#45B2E8"/><path fill-rule="evenodd" clip-rule="evenodd" d="M43 160a2 2 0 00-2 2v11a2 2 0 002 2h17a2 2 0 002-2v-11a2 2 0 00-2-2H43z" fill="#159570"/><path fill-rule="evenodd" clip-rule="evenodd" d="M50.716 168.941a2.092 2.092 0 01-.2-.896c0-.743.389-1.4.984-1.795.595.395.984 1.052.984 1.795 0 .29-.059.568-.167.82.232-.074.481-.115.74-.115.78 0 1.47.37 1.885.938a2.329 2.329 0 01-1.885.937 2.348 2.348 0 01-1.64-.657 2.347 2.347 0 01-1.641.657c-.78 0-1.47-.37-1.885-.938a2.33 2.33 0 011.885-.937c.335 0 .653.068.94.191z" fill="#fff"/><path fill-rule="evenodd" clip-rule="evenodd" d="M50.844 165c0-.345.28-.625.625-.625h.062a.625.625 0 110 1.25h-.062a.625.625 0 01-.625-.625zm-1.344 0a.625.625 0 100 1.25h.063a.625.625 0 100-1.25H49.5zm-1.313 1.25a.625.625 0 100 1.25h.063a.625.625 0 100-1.25h-.063zm5.251-1.25a.625.625 0 100 1.25h.063a.625.625 0 100-1.25h-.063zm.688 1.875c0-.345.28-.625.625-.625h.063a.625.625 0 110 1.25h-.063a.625.625 0 01-.625-.625z" fill="#FCD669"/><path fill="#fff" d="M73 161h9v13h-9z"/><path fill="#EBEFF4" d="M91 175H74a2 2 0 01-2-2v-11a2 2 0 012-2h17a2 2 0 012 2v11a2 2 0 01-2 2zm1-13a1 1 0 00-1-1H74a1 1 0 00-1 1v11a1 1 0 001 1h17a1 1 0 001-1v-11z"/><path fill="#E25950" d="M82 160v15h9a2 2 0 002-2v-11a2 2 0 00-2-2h-9z"/><path fill="#9C9B9A" d="M76.13 167.88v-2h-2v-1.75h2v-2h1.75v2h2v1.75h-2v2h-1.75z" opacity=".5"/><path fill="#E25950" d="M77.75 162.25v2h2v1.5h-2v2h-1.5v-2h-2v-1.5h2v-2h1.5zM78 162h-2v2h-2v2h2v2h2v-2h2v-2h-2v-2z"/><path fill-rule="evenodd" clip-rule="evenodd" d="M105.617 160h15.766c1.443 0 2.617 1.12 2.617 2.501v1.249h-21v-1.249c0-1.376 1.172-2.501 2.617-2.501z" fill="#E25950"/><path fill-rule="evenodd" clip-rule="evenodd" d="M103 167.5h21v3.75h-21v-3.75z" fill="#FCD669"/><path fill-rule="evenodd" clip-rule="evenodd" d="M103 163.75h21v3.75h-21v-3.75z" fill="#43458B"/><path fill-rule="evenodd" clip-rule="evenodd" d="M104.313 167.5H103v3.75h1.313v-3.75zm18.375 0v3.75H124v-3.75h-1.313z" fill="#A68527" fill-opacity=".1"/><path fill-rule="evenodd" clip-rule="evenodd" d="M103 171.25h21v1.25c0 1.39-1.172 2.5-2.617 2.5h-15.766c-1.443 0-2.617-1.12-2.617-2.5v-1.25z" fill="#24B47E"/><g data-name="Layer 2"><g data-name="Layer 1"><path fill="#f6f9fc" d="M140 160h9v15h-9v-15z"/><path data-name="Shape" d="M140 175v-1h9v1zm0-15h9v1h-9z" fill="#8898aa" opacity=".1" style="isolation:isolate"/><path data-name="Shape" d="M136 160h5v15h-5a2 2 0 01-2-2v-11a2 2 0 012-2z" fill="#24b47e"/><path data-name="Shape" d="M153 175h-5v-15h5a2 2 0 012 2v11a2 2 0 01-2 2z" fill="#e25950"/><path data-name="Shape" d="M142.575 168a1.913 1.913 0 003.827 0h.852l.002.014a2.753 2.753 0 11-5.505 0l.002-.014z" fill="#24b47e"/><path data-name="Shape" d="M144.5 166a1.5 1.5 0 11-1.5 1.5 1.5 1.5 0 011.5-1.5z" fill="#b5562b"/></g></g><path d="M184 175h-17a2 2 0 01-2-2v-7h8v-6h11a2 2 0 012 2v11a2 2 0 01-2 2z" fill="#e25950"/><path d="M165 171h21v1h-21zm0-2h21v1h-21zm0-2h21v1h-21zm8-2h13v1h-13zm0-2h13v1h-13zm0-2h12.72a2 2 0 01.28 1h-13zm12.72 13h-20.44a2 2 0 01-.28-1h21a2 2 0 01-.28 1z" fill="#f6f9fc"/><path d="M184 175h-17a2 2 0 01-2-2v-7h1v7a1 1 0 001 1h17a1 1 0 001-1v-11a1 1 0 00-1-1h-11v-1h11a2 2 0 012 2v11a2 2 0 01-2 2z" style="isolation:isolate" fill="#e25950" opacity=".2"/><path d="M175 160h-8a2 2 0 00-2 2v8h10z" fill="#555abf"/><path d="M171.5 167.75a2.75 2.75 0 111.84-4.75 3.5 3.5 0 10-2.84 5.5 3.46 3.46 0 002.84-1.5 2.73 2.73 0 01-1.84.75z" fill="#fcd669"/><circle cx="172.5" cy="165" r="1" fill="#fcd669"/><g fill="none"><path d="M202 160v15h13a2 2 0 002-2v-11a2 2 0 00-2-2h-13z" fill="#F6F9FC"/><path d="M198 160a2 2 0 00-2 2v11a2 2 0 002 2h8v-15h-8z" fill="#24B47E"/><path d="M206 163v1a3.54 3.54 0 00-2.148 5.805A3.54 3.54 0 00206 171v1a4.05 4.05 0 01-.5 0 4.5 4.5 0 110-9c.167-.01.333-.01.5 0z" fill="#E25950"/><path d="M209.48 165.4a3.62 3.62 0 00-2.88-1.4 3.55 3.55 0 00-3.6 3.5 3.55 3.55 0 003.6 3.5 3.62 3.62 0 002.88-1.4 4.5 4.5 0 110-4.2z" fill="#E25950"/><path d="M208.5 169a1.5 1.5 0 100-3 1.5 1.5 0 000 3z" fill="#E25950"/><path opacity=".2" d="M215 161a1 1 0 011 1v11a1 1 0 01-1 1h-9v1h9a2 2 0 002-2v-11a2 2 0 00-2-2h-9v1h9z" fill="#8898AA"/><path fill-rule="evenodd" clip-rule="evenodd" d="M198 160a2 2 0 00-2 2v11a2 2 0 002 2h17a2 2 0 002-2v-11a2 2 0 00-2-2h-17z" fill="#159570"/><path fill-rule="evenodd" clip-rule="evenodd" d="M196 171v2a2 2 0 002 2h17a2 2 0 002-2v-2h-21z" fill="#FCD669"/><path fill-rule="evenodd" clip-rule="evenodd" d="M196 171v2a2 2 0 002 2h17a2 2 0 002-2v-2h-21z" fill="#FCD669"/><path fill-rule="evenodd" clip-rule="evenodd" d="M196 171v2a2 2 0 002 2h17a2 2 0 002-2v-2h-21z" fill="#FCD669"/><path d="M197 172v1a1 1 0 001 1h17a1 1 0 001-1v-2h1v2a2 2 0 01-2 2h-17a2 2 0 01-2-2v-2h1v1z" fill="#A68527" fill-opacity=".1"/><path fill-rule="evenodd" clip-rule="evenodd" d="M196 165v-1h21v1h-21zm0 6v-1h21v1h-21z" fill="#F6F9FC"/><path fill-rule="evenodd" clip-rule="evenodd" d="M216 164v1h1v-1h-1zm0 6v1h1v-1h-1z" fill="#EAEEF3"/><path fill-rule="evenodd" clip-rule="evenodd" d="M196 165v5h21v-5h-21z" fill="#333"/><path d="M203 165l-6.19-4.42a.91.91 0 00-.14-.07A2 2 0 00196 162v11a2 2 0 00.67 1.48.42.42 0 00.14-.06L203 170l3.5-2.5-3.5-2.5z" fill="#E25950"/><path d="M201.934 166.628l-1.424.002a.198.198 0 01-.189-.137l-.44-1.355a.198.198 0 00-.378 0l-.44 1.354a.197.197 0 01-.188.137h-1.425a.198.198 0 00-.116.36l1.152.837c.07.05.099.14.072.221l-.44 1.356a.198.198 0 00.305.221l1.152-.773c.07-.05.164-.05.234 0l1.152.773a.198.198 0 00.306-.221l-.441-1.356a.198.198 0 01.072-.221l1.152-.838a.2.2 0 00-.117-.361z" fill="#FCD669"/></g><g data-name="Layer 2"><g data-name="Layer 1"><path fill="#f6f9fc" d="M230 175h3l15-10v-2l-18 12zm12-15l-15 10v2l18-12h-3z"/><path d="M245 160l-18 12a3 3 0 003 3l18-12a3 3 0 00-3-3z" fill="#e25950"/><path d="M230 160a3 3 0 00-3 3v7l15-10zm-1 4v-2h2v2z" fill="#43458b"/><path d="M245 175a3 3 0 003-3v-7l-15 10z" fill="#24b47e"/><path fill="#fcd669" d="M229 162h2v2h-2z"/></g></g><g data-name="Layer 2"><g data-name="Layer 1"><path d="M259.995 160a1.997 1.997 0 00-1.995 2.005V165h21v-2.995a2.006 2.006 0 00-1.995-2.005z" fill="#e25950"/><path fill="#fff" d="M258 165h21v5h-21z"/><path data-name="Rectangle-34" d="M258 170v2.995a2.006 2.006 0 001.995 2.005h17.01a1.997 1.997 0 001.995-2.005V170z" fill="#24b47e"/><circle cx="268.5" cy="167.5" r="1.5" fill="#e25950"/><path fill="#eaeef3" d="M258 165h1.001v5H258zm19.999 0H279v5h-1.001z"/></g></g><g data-name="Layer 2"><g data-name="Layer 1"><path d="M291.006 160a2 2 0 00-2.006 1.992v11.016a1.992 1.992 0 002.006 1.992H296v-15zM303 160v15h4.994a2 2 0 002.006-1.992v-11.016a1.992 1.992 0 00-2.006-1.992z" fill="#24b47e"/><path fill="#f6f9fc" d="M296 160h7v15h-7z"/><path fill="#eaeef3" d="M296 175v-1.001h7v1zm0-14v-1h7v1z"/></g></g><g data-name="Layer 2"><g data-name="Layer 1"><path d="M321.995 160a1.997 1.997 0 00-1.995 2.005V165h21v-2.995a2.006 2.006 0 00-1.995-2.005z" fill="#43458b"/><path fill="#fff" d="M320 165h21v5h-21z"/><path d="M320 170v2.995a2.006 2.006 0 001.995 2.005h17.01a1.997 1.997 0 001.995-2.005V170z" fill="#43458b"/><path d="M330.5 169a1.5 1.5 0 111.5-1.5 1.502 1.502 0 01-1.5 1.5zm0-2a.5.5 0 10.5.5.5.5 0 00-.5-.5z" fill="#fcd669"/><path fill="#eaeef3" d="M320 165h1.001v5H320zm19.999 0H341v5h-1.001z"/></g></g><g data-name="Layer 2"><g data-name="Layer 1"><path fill="#f6f9fc" d="M351 164h21v7h-21v-7z"/><path data-name="Shape" d="M371 171v-7h1v7zm-20-7h1v7h-1z" fill="#8898aa" opacity=".1" style="isolation:isolate"/><path d="M372 162v3h-21v-3a2 2 0 012-2h17a2 2 0 012 2z" fill="#e25950"/><path data-name="Shape" d="M351 173v-3h21v3a2 2 0 01-2 2h-17a2 2 0 01-2-2z" fill="#6772e5"/></g></g><g data-name="Layer 2"><g data-name="Layer 1"><path d="M384 160h17a2 2 0 012 2v11a2 2 0 01-2 2h-17a2 2 0 01-2-2v-11a2 2 0 012-2z" fill="#e25950"/><path data-name="Shape" fill="#f6f9fc" d="M403 169h-12v6h-3v-6h-6v-3h6v-6h3v6h12v3z"/><path data-name="Shape" d="M402 169v-3h1v3zm-14 5h3v1h-3zm0-14h3v1h-3zm-6 6h1v3h-1z" fill="#555abf" opacity=".1" style="isolation:isolate"/><path data-name="Shape" fill="#555abf" d="M403 168h-13v7h-1v-7h-7v-1h7v-7h1v7h13v1z"/></g></g><g data-name="Layer 2"><g data-name="Layer 1"><path d="M415 160h17a2 2 0 012 2v11a2 2 0 01-2 2h-17a2 2 0 01-2-2v-11a2 2 0 012-2z" fill="#43458b"/><path data-name="Shape" d="M413 165.664l3.498-2.4.001-.001h.001l.001.001 5.425 3.722h-1.767l-3.659-2.51-3.5 2.401zm9-5.569v1.213l-3.499 2.4-.001.001-.001-.001-4.758-3.264a1.983 1.983 0 011.121-.444l3.638 2.496z" fill="#f6f9fc"/><path data-name="Shape" d="M421.909 167l-3.659-2.51-3.659 2.51H413v-.121l5.249-3.601v-.001h.002v.001L422 165.85V167zm-5.158-3.278v.001h-.002v-.001l-3.601-2.47a1.99 1.99 0 01.601-.801l3.001 2.059 3.659-2.51H422v.121z" fill="#e25950"/><path data-name="Shape" fill="#f6f9fc" d="M422 164.625h-3.375V167h-2.25v-2.375H413v-2.25h3.375V160h2.25v2.375H422v2.25z"/><path data-name="Shape" fill="#e25950" d="M422 163.998h-4V167h-1v-3.002h-4v-.996h4V160h1v3.002h4v.996z"/><path data-name="Shape" d="M429.22 166.44a1.22 1.22 0 111.186-1.22 1.22 1.22 0 01-1.185 1.22zm-2-2a1.22 1.22 0 111.186-1.22 1.22 1.22 0 01-1.186 1.22zm-.78 1.781a1.22 1.22 0 11-1.22-1.186 1.22 1.22 0 011.22 1.186zm.78 3.781a1.22 1.22 0 11-1.185 1.22 1.22 1.22 0 011.185-1.22z" fill="#f6f9fc"/><path data-name="Shape" d="M429.188 165.874a.687.687 0 11.686-.688.687.687 0 01-.686.688zm-2 6.001a.688.688 0 11.687-.688.688.688 0 01-.688.688zm0-8.001a.687.687 0 11.685-.688.687.687 0 01-.685.688zm-2 3a.688.688 0 11.617-.336.688.688 0 01-.617.336z" fill="#e25950"/></g></g><g data-name="Layer 2"><g data-name="Layer 1"><path d="M448 160v6h17v-4.002a1.996 1.996 0 00-2-1.998z" fill="#f6f9fc"/><path d="M464.5 167.5v-5.502a1.502 1.502 0 00-1.495-1.498h-17.01" fill="none" stroke="#eaeef3"/><path d="M449 165v-5h-2.995a2 2 0 00-2.005 1.992v11.016a1.996 1.996 0 002.005 1.992H449v-5h16v-5z" fill="#e25950"/><path d="M449 170v5h14.006a1.997 1.997 0 001.994-2.005V170z" fill="#24b47e"/><path d="M446.5 162a.5.5 0 01.5.5.5.5 0 01-.5.5.5.5 0 01-.5-.5.5.5 0 01.5-.5z" fill="#fff"/></g></g><g data-name="Layer 2"><g data-name="Layer 1"><path d="M476.992 160a1.99 1.99 0 00-1.992 1.998V168h11v-8z" fill="#f7fafc"/><path d="M475.5 167.5h10v-7h-8.508a1.49 1.49 0 00-1.492 1.498z" fill="none" stroke="#e6e9ed"/><path d="M485 167v8h9.008a1.99 1.99 0 001.992-1.998V167z" fill="#f7fafc"/><path d="M485.5 167.5v7h8.508a1.49 1.49 0 001.492-1.498V167.5z" fill="none" stroke="#e6e9ed"/><path d="M492.792 170.318l-1.153.002a.16.16 0 01-.152-.11l-.357-1.098a.16.16 0 00-.305 0l-.357 1.097a.16.16 0 01-.152.11h-1.154a.16.16 0 00-.094.29l.933.679a.16.16 0 01.058.18l-.356 1.097a.16.16 0 00.247.18l.933-.626a.16.16 0 01.188 0l.934.626a.16.16 0 00.247-.18l-.357-1.097a.16.16 0 01.058-.18l.933-.678a.16.16 0 00.06-.18.163.163 0 00-.154-.112z" fill="#e25950"/><path d="M481.747 163.347l-1.14.002a.158.158 0 01-.15-.11l-.353-1.084a.158.158 0 00-.302 0l-.351 1.085a.158.158 0 01-.151.11h-1.14a.158.158 0 00-.093.287l.921.67a.158.158 0 01.058.178l-.352 1.084a.158.158 0 00.245.177l.921-.619a.158.158 0 01.186 0l.923.619a.158.158 0 00.244-.177l-.353-1.086a.158.158 0 01.058-.178l.922-.67a.158.158 0 00.058-.178.16.16 0 00-.15-.111zM475 168v4.994a2.004 2.004 0 001.992 2.006H486v-7z" fill="#217ab7"/><path data-name="Rectangle-34" d="M485 160v8h11v-6.002a2 2 0 00-1.992-1.998z" fill="#e25950"/></g></g><g data-name="Layer 2"><g data-name="Layer 1"><path d="M508.006 160a2 2 0 00-2.006 1.992v11.016a1.992 1.992 0 002.006 1.992H513v-15zM520 160v15h4.994a2 2 0 002.006-1.992v-11.016a1.992 1.992 0 00-2.006-1.992z" fill="#e25950"/><path fill="#f6f9fc" d="M513 160h7v15h-7z"/><path fill="#eaeef3" d="M513 175v-1.001h7v1zm0-14v-1h7v1z"/></g></g><g data-name="Layer 2"><g data-name="Layer 1"><path d="M31 186.992A2 2 0 0029.005 185h-17.01a1.979 1.979 0 00-1.302.495l19.615 14.01a1.978 1.978 0 00.692-1.497z" fill="#e25950"/><path d="M10.693 185.495a1.978 1.978 0 00-.693 1.497v11.016A2 2 0 0011.995 200h17.01a1.979 1.979 0 001.303-.495z"/><path d="M16.5 193a.5.5 0 01.5.5.5.5 0 01-.5.5.5.5 0 01-.5-.5.5.5 0 01.5-.5z" fill="#fff" fill-opacity=".8"/><path d="M15.5 195a.5.5 0 01.5.5.5.5 0 01-.5.5.5.5 0 01-.5-.5.5.5 0 01.5-.5z" fill="#fff" fill-opacity=".3"/><path d="M13.5 194a.5.5 0 01.5.5.5.5 0 01-.5.5.5.5 0 01-.5-.5.5.5 0 01.5-.5z" fill="#fff" fill-opacity=".9"/><path data-name="path-121" d="M14.5 197a.5.5 0 01.5.5.5.5 0 01-.5.5.5.5 0 01-.5-.5.5.5 0 01.5-.5z" fill="#fff" fill-opacity=".9"/><path d="M14.5 191a.5.5 0 01.5.5.5.5 0 01-.5.5.5.5 0 01-.5-.5.5.5 0 01.5-.5z" fill="#fff"/><path d="M25 189v-1.292c0-.557.353-.75.804-.418l2.892 2.12c.444.326.356.59-.195.59H26v1.506c0 .536-.35.721-.784.384l-2.932-2.28c-.43-.335-.337-.61.215-.61z" fill="#fac92e"/></g></g><g data-name="Layer 2"><g data-name="Layer 1"><path d="M42.418 185.096L52 192.5l-9.582 7.404A1.994 1.994 0 0141 198v-11a1.994 1.994 0 011.418-1.904z" fill="#f6f9fc"/><path data-name="Shape" d="M43 186a1 1 0 00-1 1v11a1 1 0 001 1h1v1h-1a2 2 0 01-2-2v-11a2 2 0 012-2h1v1z" fill="#8898aa" opacity=".2" style="isolation:isolate"/><path data-name="Shape" d="M60 200H43a1.982 1.982 0 01-1.291-.484L52 192.5l-.733-.5H62v6a2 2 0 01-2 2z" fill="#e25950"/><path data-name="Shape" d="M41.709 185.484A1.982 1.982 0 0143 185h17a2 2 0 012 2v5.5H52z" fill="#555abf"/><path data-name="Shape" d="M45.507 190a2.502 2.502 0 11-2.493 2.5 2.496 2.496 0 012.493-2.5z" fill="#f5be58"/></g></g><g data-name="Layer 2"><g data-name="Layer 1"><path d="M74 185h17a2 2 0 012 2v11a2 2 0 01-2 2H74a2 2 0 01-2-2v-11a2 2 0 012-2z" fill="#f6f9fc"/><path data-name="Shape" d="M91 200H74a2 2 0 01-2-2v-11a2 2 0 012-2h17a2 2 0 012 2v11a2 2 0 01-2 2zm1-13a1 1 0 00-1-1H74a1 1 0 00-1 1v11a1 1 0 001 1h17a1 1 0 001-1z" fill="#8898aa" opacity=".2" style="isolation:isolate"/><path d="M78 185v15h13.008A1.993 1.993 0 0093 198.008v-11.016A1.993 1.993 0 0091.008 185z" fill="#24b47e"/><path d="M84.937 187a4.206 4.206 0 00-2.071 3.566 4.488 4.488 0 004.664 4.29 4.946 4.946 0 002.47-.65A4.73 4.73 0 0185.747 197 4.898 4.898 0 0181 191.963 4.962 4.962 0 0184.937 187z" fill="#fff"/><circle cx="88" cy="190" r="1" fill="#fff"/></g></g><g data-name="Layer 2"><g data-name="Layer 1"><path fill="#fff" d="M104 185.89h19v6.354h-19z"/><path d="M103.5 192.5h20v-5.502a1.502 1.502 0 00-1.495-1.498h-17.01a1.491 1.491 0 00-1.495 1.498z" fill="none" stroke="#dfe5eb"/><path d="M103 192v6.002a2.002 2.002 0 001.995 1.998h17.01a1.991 1.991 0 001.995-1.998V192z" fill="#e25950"/></g></g><path d="M136 185a2 2 0 00-2 2v3h21v-3a2 2 0 00-2-2z" fill="#e25950"/><path fill="#f6f9fc" d="M134 190h21v5h-21z"/><path fill="#eaeef3" d="M154 190h1v5h-1z"/><path d="M134 195v3a2 2 0 002 2h17a2 2 0 002-2v-3z" fill="#e25950"/><path d="M136 200l8-7.5-8-7.5a2 2 0 00-2 2v11a2 2 0 002 2z" fill="#555abf"/><path fill="#f6f9fc" d="M137.5 190.29l.65 1.32 1.45.21-1.05 1.02.25 1.45-1.3-.68-1.3.68.25-1.45-1.05-1.02 1.45-.21.65-1.32z"/><path d="M167 185a2 2 0 00-2 2v3h21v-3a2 2 0 00-2-2z"/><path fill="#f6f9fc" d="M165 190h21v5h-21z"/><path fill="#eaeef3" d="M185 190h1v5h-1z"/><path d="M165 195v3a2 2 0 002 2h17a2 2 0 002-2v-3z" fill="#0a9362"/><path d="M167 200l8-7.5-8-7.5a2 2 0 00-2 2v11a2 2 0 002 2z" fill="#e25950"/><g data-name="Layer 2"><g data-name="Layer 1"><path d="M204 200h-6a2 2 0 01-2-2v-11a2 2 0 012-2h6z" fill="#24b47e"/><path d="M215 200h-12v-15h12a2 2 0 012 2v11a2 2 0 01-2 2z" fill="#e25950"/><path d="M206.003 192.5a3.531 3.531 0 100 .001z" fill="#fcd669"/><path d="M202.425 190.001a2.5 2.5 0 11-2.424 2.574L200 192.5a2.5 2.5 0 012.425-2.499z" fill="#e25950"/><path d="M201.5 191h2v2.031a1 1 0 01-2 0z" fill="#f6f9fc"/></g></g><g data-name="Layer 2"><g data-name="Layer 1"><path d="M228.995 185a1.997 1.997 0 00-1.995 2.005V190h21v-2.995a2.006 2.006 0 00-1.995-2.005z" fill="#e25950"/><path fill="#fff" d="M227 190h21v5h-21z"/><path d="M227 195v2.995a2.006 2.006 0 001.995 2.005h17.01a1.997 1.997 0 001.995-2.005V195z" fill="#43458b"/><path d="M237.5 194a1.5 1.5 0 111.5-1.5 1.502 1.502 0 01-1.5 1.5zm0-2a.5.5 0 10.5.5.5.5 0 00-.5-.5z" fill="#e25950"/><path fill="#eaeef3" d="M227 190h1.001v5H227zm19.999 0H248v5h-1.001z"/></g></g><g data-name="Layer 2"><g data-name="Layer 1"><path d="M260 185h17a2 2 0 012 2v11a2 2 0 01-2 2h-17a2 2 0 01-2-2v-11a2 2 0 012-2z" fill="#f6f9fc"/><path data-name="Shape" d="M277 200h-17a2 2 0 01-2-2v-11a2 2 0 012-2h17a2 2 0 012 2v11a2 2 0 01-2 2zm1-13a1 1 0 00-1-1h-17a1 1 0 00-1 1v11a1 1 0 001 1h17a1 1 0 001-1z" fill="#8898aa" opacity=".2" style="isolation:isolate"/><path d="M267 200h-2l-1-.5 2-1-2-1 2-1-2-1 2-1-2-1 2-1-2-1 2-1-2-1 2-1-2-1 2-1-2-1 1-.5h11.991a2.002 2.002 0 012.009 1.992v11.016a2.001 2.001 0 01-2.009 1.992z" fill="#b1372f"/></g></g><g fill="none" fill-rule="evenodd"><g fill="#6772E5" fill-rule="nonzero"><path d="M308 200h-15.567l6.957-15H308a2 2 0 012 2v11a2 2 0 01-2 2z"/><path d="M293.438 200H291a2 2 0 01-2-2v-11a2 2 0 012-2h11.098l-8.66 15z"/></g><path fill="#FFF" d="M296 196l6.856-1.453V189L296 190.453z"/></g><g data-name="Layer 2"><g data-name="Layer 1"><path d="M322.006 185a2 2 0 00-2.006 1.992v11.016a1.992 1.992 0 002.006 1.992H327v-15z" fill="#43458b"/><path d="M334 185v15h4.994a2 2 0 002.006-1.992v-11.016a1.992 1.992 0 00-2.006-1.992z" fill="#e25950"/><path data-name="Rectangle-295" fill="#fcd669" d="M327 185h7v15h-7z"/></g></g><path d="M353 185a2 2 0 00-2 2v3h21v-3a2 2 0 00-2-2h-17z" fill="#E25950"/><path d="M372 190h-21v5h21v-5z" fill="#43458B"/><path d="M351 195v3a2 2 0 002 2h17a2 2 0 002-2v-3h-21z" fill="#F6F9FC"/><path d="M361 188h-7v5.5a3.5 3.5 0 007 0V188z" fill="#E25950"/><path d="M353 199a1 1 0 01-1-1v-3h-1v3a2 2 0 002 2h17a2 2 0 002-2v-3h-1v3a1 1 0 01-1 1h-17z" fill="#EAEEF3"/><path d="M355 190h5v4l-2 1-.5 1-.5-1-2-1v-4z" fill="#F6F9FC"/><path d="M357 193v1c-.8 0-1-.667-1-1h1z" fill="#fff"/><path d="M357 193v1c-.8 0-1-.667-1-1h1z" fill="#E25950"/><path d="M358 193h1c0 .8-.667 1-1 1v-1z" fill="#fff"/><path d="M358 193h1c0 .8-.667 1-1 1v-1z" fill="#E25950"/><path d="M356 191h1v1h-1v-1z" fill="#fff"/><path d="M356 191h1v1h-1v-1z" fill="#E25950"/><path d="M359 191h-1v1h1v-1z" fill="#fff"/><path d="M359 191h-1v1h1v-1z" fill="#E25950"/><circle cx="356.5" cy="189.5" r=".5" fill="#F6F9FC"/><circle cx="358.5" cy="189.5" r=".5" fill="#F6F9FC"/><path d="M359 189v1l1-.5-1-.5zm-3 1v-1l-1 .5 1 .5zm-1-2h5v1h-5z" fill="#E9C152"/><g data-name="Layer 2"><g data-name="Layer 1"><path d="M383.995 185a1.999 1.999 0 00-1.995 1.998V191h21v-4.002a2.002 2.002 0 00-1.995-1.998z" fill="#f6f9fc"/><path d="M382.5 190.5h20v-3.502a1.502 1.502 0 00-1.495-1.498h-17.01a1.499 1.499 0 00-1.495 1.498z" fill="none" stroke="#dfe5eb"/><path fill="#43458b" d="M382 190h21v5h-21z"/><path data-name="Rectangle-34" d="M382 195v2.995a2.006 2.006 0 001.995 2.005h17.01a1.997 1.997 0 001.995-2.005V195z" fill="#e25950"/></g></g><g data-name="Layer 2"><g data-name="Layer 1"><path d="M414.995 185a1.993 1.993 0 00-1.995 2.006V192h21v-4.994a2.006 2.006 0 00-1.995-2.006z" fill="#45b2e8"/><path fill="#fcd669" d="M413 192h21v4h-21z"/><path data-name="Rectangle-34" d="M413 196v2a2.003 2.003 0 001.995 2h17.01a1.992 1.992 0 001.995-2v-2z" fill="#24b47e"/><circle cx="430.5" cy="188.5" r="1.5" fill="#fcd669"/></g></g><g data-name="Layer 2"><g data-name="Layer 1"><rect width="21" height="15" rx="2" ry="2" fill="#24b47e" x="444" y="185"/><path d="M459 195h1l-.5 1h-.5v1l-1-.5v-.5h-6.508L449 195h9v-.5l1-.5z" fill="#fff"/><path data-name="Rectangle-584" fill="#fff" d="M458 189l1.657.146.343.854v2h-1l-1.492-.528L457 192v-3h1zm-3.283.375L456 189v3l-1.283-.488L453 192l.172-1.858L453 189l1.717.375zM451 189l1 1v2l-.764-.343L450 192l-.994-.006.183-2.917L451 189z"/></g></g><g data-name="Layer 2"><g data-name="Layer 1"><path d="M477 185h17a2 2 0 012 2v11a2 2 0 01-2 2h-17a2 2 0 01-2-2v-11a2 2 0 012-2z" fill="#217ab7"/><path data-name="Shape" fill="#fcd669" d="M496 194h-12v6h-3v-6h-6v-3h6v-6h3v6h12v3z"/></g></g><g data-name="Layer 2"><g data-name="Layer 1"><path d="M507.995 185a1.991 1.991 0 00-1.995 1.998V193h21v-6.002a2.002 2.002 0 00-1.995-1.998z" fill="#ea2c3f"/><path d="M527 192v6a2 2 0 01-2 2h-17a2 2 0 01-2-2v-6z" fill="#f6f9fc"/><path data-name="Shape" d="M525 200h-17a2 2 0 01-2-2v-6h1v6a1 1 0 001 1h17a1 1 0 001-1v-6h1v6a2 2 0 01-2 2z" fill="#8898aa" opacity=".2" style="isolation:isolate"/><path data-name="Shape" d="M506 193v-6a2 2 0 012-2h17a2 2 0 012 2v6z" fill="#e25950"/><path data-name="Shape" d="M510.368 188.96a2.367 2.367 0 002.354 2.367A2.956 2.956 0 11510.96 186a2.936 2.936 0 011.762.593 2.367 2.367 0 00-2.354 2.367zm6.194.415a.594.594 0 11.57-.593.594.594 0 01-.57.593zm-1.5-1.187a.594.594 0 11.595-.593.594.594 0 01-.595.593zm-.281 2.375a.594.594 0 11-.594-.594.594.594 0 01.594.594zm-1.187-1.188a.594.594 0 11.594-.594.594.594 0 01-.594.594zm2.375.594a.593.593 0 11-.593.593.593.593 0 01.593-.593z" fill="#f6f9fc"/></g></g><path d="M12 210a2 2 0 00-2 2v3h21v-3a2 2 0 00-2-2z" fill="#f6f9fc"/><path fill="#555abf" d="M10 215h21v5H10z"/><path d="M10 220v3a2 2 0 002 2h17a2 2 0 002-2v-3z" fill="#e25950"/><path d="M19 214v4.5a2.5 2.5 0 01-5 0V214h5m1-1h-7v5.5a3.5 3.5 0 007 0V213z" fill="#e25950"/><path d="M14 214h5v4.5a2.5 2.5 0 01-2.5 2.5 2.5 2.5 0 01-2.5-2.5V214z" fill="#555abf"/><path d="M16.5 221a2.5 2.5 0 01-2.5-2.5l1-.84.51.42.99-1.08 1 1.08.5-.41 1 .83a2.5 2.5 0 01-2.5 2.5z" fill="#f6f9fc"/><circle cx="15.5" cy="215.04" r=".5" fill="#f6f9fc"/><circle cx="17.5" cy="215.04" r=".5" fill="#f6f9fc"/><circle cx="16.49" cy="216.17" r=".5" fill="#f6f9fc"/><path d="M29 211a1 1 0 011 1v3h1v-3a2 2 0 00-2-2H12a2 2 0 00-2 2v3h1v-3a1 1 0 011-1h17" fill="#eaeef3"/><path d="M43 210a2 2 0 00-2 2v3h21v-3a2 2 0 00-2-2z" fill="#f6f9fc"/><path fill="#555abf" d="M41 215h21v5H41z"/><path d="M41 220v3a2 2 0 002 2h17a2 2 0 002-2v-3z" fill="#e25950"/><path d="M44 213h7v5.5a3.5 3.5 0 01-3.5 3.5 3.5 3.5 0 01-3.5-3.5V213z" fill="#f6f9fc"/><path d="M45 214h5v4.5a2.5 2.5 0 01-2.5 2.5 2.5 2.5 0 01-2.5-2.5V214z" fill="#ed1c24"/><path d="M47.5 221a2.5 2.5 0 01-2.5-2.5h5a2.5 2.5 0 01-2.5 2.5z" fill="#555abf"/><path d="M60 211a1 1 0 011 1v3h1v-3a2 2 0 00-2-2H43a2 2 0 00-2 2v3h1v-3a1 1 0 011-1h17" fill="#eaeef3"/><path fill="#f6f9fc" d="M47 214.5h1v4h-1z"/><path fill="#f6f9fc" d="M46 215h3v1h-3zm-.5 2h4v1h-4z"/><g data-name="Layer 2"><g data-name="Layer 1"><path d="M73.995 210A1.997 1.997 0 0072 212.005V215h21v-2.995A2.006 2.006 0 0091.005 210z" fill="#24b47e"/><path fill="#fff" d="M72 215h21v5H72z"/><path data-name="Rectangle-34" d="M72 220v2.995A2.006 2.006 0 0073.995 225h17.01A1.997 1.997 0 0093 222.995V220z" fill="#217ab7"/><path fill="#eaeef3" d="M72 215h1.001v5H72zm19.999 0H93v5h-1.001z"/></g></g><g fill="none"><path fill-rule="evenodd" clip-rule="evenodd" d="M103 218v5a2 2 0 002 2h17a2 2 0 002-2v-5h-21z" fill="#217AB7"/><path fill-rule="evenodd" clip-rule="evenodd" d="M105 210a2 2 0 00-2 2v6h21v-6a2 2 0 00-2-2h-17z" fill="#F6F9FC"/><path d="M103 212a2 2 0 012-2h17a2 2 0 012 2v6h-1v-6a1 1 0 00-1-1h-17a1 1 0 00-1 1v6h-1v-6z" fill="#EAEEF3"/><path fill-rule="evenodd" clip-rule="evenodd" d="M113.5 221a3.5 3.5 0 100-7 3.5 3.5 0 000 7z" fill="#F4B32E"/></g><g data-name="Layer 2"><g data-name="Layer 1"><path d="M136.006 210a2 2 0 00-2.006 1.992v11.016a1.992 1.992 0 002.006 1.992H141v-15z" fill="#24b47e"/><path d="M148 210v15h4.994a2 2 0 002.006-1.992v-11.016a1.992 1.992 0 00-2.006-1.992z" fill="#e25950"/><path data-name="Rectangle-295" fill="#fcd669" d="M141 210h7v15h-7z"/><path d="M146.796 216.667l-1.458.003a.202.202 0 01-.193-.14l-.452-1.387a.202.202 0 00-.386 0l-.45 1.386a.202.202 0 01-.193.14h-1.46a.202.202 0 00-.118.368l1.18.857a.202.202 0 01.073.228l-.45 1.387a.202.202 0 00.313.227l1.18-.791a.202.202 0 01.238 0l1.18.791a.202.202 0 00.313-.227l-.452-1.387a.202.202 0 01.074-.228l1.18-.857a.202.202 0 00.075-.227.205.205 0 00-.194-.143z" fill="#24b47e"/></g></g><g data-name="Layer 2"><g data-name="Layer 1"><rect width="21" height="15" rx="2" ry="2" fill="#217ab7" x="165" y="210"/><path d="M179.633 216l-2.625.006a.364.364 0 01-.347-.253l-.813-2.497a.364.364 0 00-.695 0l-.811 2.496a.364.364 0 01-.347.253h-2.626a.364.364 0 00-.215.661l2.124 1.544a.364.364 0 01.132.409l-.81 2.497a.364.364 0 00.562.41l2.124-1.426a.364.364 0 01.43 0l2.125 1.425a.364.364 0 00.563-.409l-.813-2.497a.364.364 0 01.132-.41l2.125-1.543a.364.364 0 00.134-.409.37.37 0 00-.35-.257z" fill="#fff"/></g></g><g data-name="Layer 2"><g data-name="Layer 1"><path d="M197.995 210a1.997 1.997 0 00-1.995 2.005V215h21v-2.995a2.006 2.006 0 00-1.995-2.005z" fill="#555abf"/><path fill="#f6f9fc" d="M196 215h21v5h-21z"/><path fill="#eaeef3" d="M196 215h1.001v5H196zm19.999 0H217v5h-1.001z"/><path d="M196 220v2.995a2.006 2.006 0 001.995 2.005h17.01a1.997 1.997 0 001.995-2.005V220z" fill="#555abf" data-name="Rectangle-34"/><path d="M206.5 219a1.5 1.5 0 111.5-1.5 1.502 1.502 0 01-1.5 1.5zm0-2a.5.5 0 10.5.5.5.5 0 00-.5-.5z" fill="#efcf57"/></g></g><g data-name="Layer 2"><g data-name="Layer 1"><path d="M229.006 210a2 2 0 00-2.006 1.992v11.016a1.992 1.992 0 002.006 1.992H234v-15z" fill="#43458b"/><path d="M241 210v15h4.994a2 2 0 002.006-1.992v-11.016a1.992 1.992 0 00-2.006-1.992z" fill="#e25950"/><path data-name="Rectangle-295" fill="#fcd669" d="M234 210h7v15h-7z"/></g></g><path d="M279 213h-21v-1a2 2 0 012-2h17a2 2 0 012 2z" fill="#e25950"/><path fill="#f9f9f9" d="M258 213h21v2h-21z"/><path fill="#eaeef3" d="M258 213h1v2h-1z"/><path fill="#f9f9f9" d="M258 220h21v2h-21z"/><path d="M258 222h21v1a2 2 0 01-2 2h-17a2 2 0 01-2-2z" fill="#e25950"/><path fill="#555abf" d="M258 215h21v5h-21z"/><path fill="#eaeef3" d="M258 220h1v2h-1zm20-7h1v2h-1zm0 7h1v2h-1z"/><g data-name="Layer 2"><g data-name="Layer 1"><path d="M290.995 210a1.997 1.997 0 00-1.995 2.005V215h21v-2.995a2.006 2.006 0 00-1.995-2.005z" fill="#ca0814"/><path fill="#fff" d="M289 215h21v5h-21z"/><path data-name="Rectangle-34" d="M289 220v2.995a2.006 2.006 0 001.995 2.005h17.01a1.997 1.997 0 001.995-2.005V220z" fill="#24b47e"/><path d="M295 218.5a.5.5 0 11.5.5.5.5 0 01-.5-.5zm2-1a.5.5 0 11.5.5.5.5 0 01-.5-.5zm2-1a.5.5 0 11.5.5.5.5 0 01-.5-.5zm2 1a.5.5 0 11.5.5.5.5 0 01-.5-.5zm2 1a.5.5 0 11.5.5.5.5 0 01-.5-.5zm-4 0a.5.5 0 11.5.5.5.5 0 01-.5-.5z"/><path data-name="path-174" d="M295 218.5a.5.5 0 11.5.5.5.5 0 01-.5-.5zm2-1a.5.5 0 11.5.5.5.5 0 01-.5-.5zm2-1a.5.5 0 11.5.5.5.5 0 01-.5-.5zm2 1a.5.5 0 11.5.5.5.5 0 01-.5-.5zm2 1a.5.5 0 11.5.5.5.5 0 01-.5-.5zm-4 0a.5.5 0 11.5.5.5.5 0 01-.5-.5z" fill="#fcd669"/><path fill="#eaeef3" d="M289 215h1.001v5H289zm19.999 0H310v5h-1.001z"/></g></g><g data-name="Layer 2"><g data-name="Layer 1"><path d="M339 210h-17a1.99 1.99 0 00-1.438.615.813.813 0 01.205.116l.643.528L333 217.5l-11.59 6.241-.642.528a.813.813 0 01-.206.116A1.99 1.99 0 00322 225h17a2 2 0 002-2v-11a2 2 0 00-2-2z" fill="#e25950"/><path fill="#fcd669" d="M321.41 223.741L333 217.5l-11.59-6.241L329 217.5l-7.59 6.241z"/><path d="M320.873 210.97l.537.289-.643-.528a.813.813 0 00-.206-.116 2.008 2.008 0 00-.238.301.623.623 0 01.55.054zm.537 12.771l-.537.289a.623.623 0 01-.55.054 1.998 1.998 0 00.239.3.813.813 0 00.205-.115z"/><path d="M320.873 224.03l.537-.289L329 217.5l-7.59-6.241-.537-.289a.623.623 0 00-.55-.054A1.987 1.987 0 00320 212v11a1.986 1.986 0 00.323 1.084.623.623 0 00.55-.054zM323.5 216a1.5 1.5 0 11-1.5 1.5 1.5 1.5 0 011.5-1.5z"/><circle cx="323.5" cy="217.5" r="1.5" fill="#f7fafc"/></g></g><path fill-rule="evenodd" clip-rule="evenodd" d="M353 210a2 2 0 00-2 2v11a2 2 0 002 2h17a2 2 0 002-2v-11a2 2 0 00-2-2h-17z" fill="#E25950"/><path fill-rule="evenodd" clip-rule="evenodd" d="M362 222a4 4 0 100-8 4 4 0 000 8zm1.334-6.31a2.333 2.333 0 100 4.62 2.667 2.667 0 110-4.62zM362 218a1.333 1.333 0 102.667 0 1.333 1.333 0 00-2.667 0z" fill="#fff"/><g data-name="Layer 2"><g data-name="Layer 1"><rect width="21" height="15" rx="2" ry="2" fill="#e25950" x="382" y="210"/><path d="M391.431 213.096a4.403 4.403 0 00-3.431 4.251 4.426 4.426 0 004.104 4.359 4.5 4.5 0 11-.673-8.61z" fill="#fff"/><circle cx="393.5" cy="217.5" r="1.5" fill="#fff"/></g></g><rect fill="#f6f9fc" width="21" height="15" rx="3" x="413" y="210"/><path fill="#e25950" d="M432 210a2 2 0 012 2v8l-15-10zm-19 13a2 2 0 002 2h13l-15-10z"/><path d="M415 210h1l18 12v1a2 2 0 01-2 2h-1l-18-12v-1a2 2 0 012-2z"/><rect width="21" height="15" rx="2" fill="#e25950" x="444" y="210"/><path d="M446 210h7v9h-9v-7a2 2 0 012-2z" fill="#555abf"/><circle cx="448.5" cy="214.5" r="2.5" fill="#fff"/><g data-name="Layer 2"><g data-name="Layer 1"><path fill="#fcd669" d="M481 225l15-10v-2l-18 12h3zm9-15l-15 10v2l18-12h-3z"/><path d="M478 210h-1.008a1.99 1.99 0 00-1.992 2v8l15-10z" fill="#24b47e"/><path d="M481 225h13.008a1.997 1.997 0 001.992-2v-8z" fill="#45b2e8"/><path d="M494 210h-1l-18 12v1a2 2 0 002 2h1l18-12v-1a2 2 0 00-2-2z"/></g></g><g data-name="Layer 2"><g data-name="Layer 1"><path d="M507.995 210a1.991 1.991 0 00-1.995 1.998V218h21v-6.002a2.002 2.002 0 00-1.995-1.998z" fill="#45b2e8"/><path data-name="Rectangle-295" d="M506 218v4.994a2.006 2.006 0 001.995 2.006h17.01a1.993 1.993 0 001.995-2.006V218z" fill="#fcd669"/></g></g><path fill-rule="evenodd" clip-rule="evenodd" d="M28.383 235H12.617c-1.445 0-2.617 1.125-2.617 2.501h21c0-1.381-1.174-2.501-2.617-2.501zM31 242.5H10v2.5h21v-2.5z" fill="#333"/><path fill-rule="evenodd" clip-rule="evenodd" d="M31 237.5H10v2.5h21v-2.5zm0 7.5H10v2.5h21V245z" fill="#FCD669"/><path fill-rule="evenodd" clip-rule="evenodd" d="M31 240H10v2.5h21V240zm-2.617 10c1.445 0 2.617-1.11 2.617-2.5H10c0 1.38 1.174 2.5 2.617 2.5h15.766z" fill="#E25950"/><path fill-rule="evenodd" clip-rule="evenodd" d="M11.313 237.5H10v2.5h1.313v-2.5zm18.375 0v2.5H31v-2.5h-1.313zm0 10V245H31v2.5h-1.313zM11.313 245H10v2.5h1.313V245z" fill="#A68527" fill-opacity=".1"/><path fill-rule="evenodd" clip-rule="evenodd" d="M20.5 243.75c.725 0 1.313-.56 1.313-1.25s-.588-1.25-1.313-1.25-1.313.56-1.313 1.25.588 1.25 1.313 1.25z" fill="#F7FAFC"/><g data-name="Layer 2"><g data-name="Layer 1"><path d="M60 250H43a2 2 0 01-2-2v-7h8v-6h11a2 2 0 012 2v11a2 2 0 01-2 2z" fill="#e25950"/><path data-name="Shape" d="M41 246h21v1H41zm0-2h21v1H41zm0-2h21v1H41zm8-2h13v1H49zm0-2h13v1H49zm0-2h12.723a1.987 1.987 0 01.277 1H49zm12.723 13H41.277a1.986 1.986 0 01-.277-1h21a1.987 1.987 0 01-.277 1z" fill="#f6f9fc"/><path data-name="Shape" d="M60 250H43a2 2 0 01-2-2v-7h1v7a1 1 0 001 1h17a1 1 0 001-1v-11a1 1 0 00-1-1H49v-1h11a2 2 0 012 2v11a2 2 0 01-2 2z" fill="#e25950" opacity=".2" style="isolation:isolate"/><path data-name="Shape" d="M41 242v-5a2 2 0 012-2h7v7z" fill="#43458b"/><path data-name="Shape" d="M48.73 237.408a.703.703 0 11.676-.703.703.703 0 01-.676.703zm-.297 1.297a.704.704 0 11-.704-.705.704.704 0 01.704.704zm-1.703-1.297a.704.704 0 11.677-.704.704.704 0 01-.677.704zm-.297 1.297a.704.704 0 11-.704-.705.704.704 0 01.704.704zm-1.703-1.297a.704.704 0 11.677-.704.704.704 0 01-.677.704zm-.297 1.297a.704.704 0 11-.704-.705.704.704 0 01.704.704zm-1.703-1.297a.703.703 0 11.676-.703.703.703 0 01-.676.703zm0 2.592a.704.704 0 11-.678.703.704.704 0 01.678-.703zm2 0a.704.704 0 11-.678.703.704.704 0 01.678-.703zm2 0a.704.704 0 11-.678.703.704.704 0 01.678-.703zm2 0a.704.704 0 11-.678.703.704.704 0 01.678-.703z" fill="#fff"/><path data-name="Shape" d="M50 239.21a.703.703 0 110-1.011zm-9-.975a.697.697 0 011.219.47.703.703 0 01-.703.703.694.694 0 01-.516-.234z" fill="#fff" opacity=".5" style="isolation:isolate"/></g></g><path d="M82 235h9a2 2 0 012 2v11H82v-13z" fill="#f6f9fc"/><path fill="#012b7f" d="M73 247h19v2H73z"/><path fill="#eaeef3" d="M92 236.5h1v11h-1z"/><path d="M74 235h8v12H72v-10a2 2 0 012-2z" fill="#f6f9fc"/><circle cx="76.5" cy="239.5" r="2.5" fill="#fcd669"/><path fill="#012b7f" d="M73 243.33h19v2H73zm8-3.66h11v2H81zm0-3.67h9.93a1.07 1.07 0 011.07 1.07v.93H81v-2z"/><g fill="#eaeef3"><path d="M72 238h1v10h-1z"/><path d="M91 236a1 1 0 011 1v3h1v-3a2 2 0 00-2-2H74a2 2 0 00-2 2v3h1v-3a1 1 0 011-1h17m0 13a1 1 0 001-1v-3h1v3a2 2 0 01-2 2H74a2 2 0 01-2-2v-3h1v3a1 1 0 001 1h17"/></g><path fill-rule="evenodd" clip-rule="evenodd" d="M105.617 235h15.766c1.443 0 2.617 1.12 2.617 2.5v2.5h-21v-2.5c0-1.39 1.172-2.5 2.617-2.5z" fill="#217AB7"/><path fill-rule="evenodd" clip-rule="evenodd" d="M106.938 238.75c.724 0 1.312-.56 1.312-1.25s-.588-1.25-1.313-1.25c-.724 0-1.312.56-1.312 1.25s.588 1.25 1.313 1.25z" fill="#fff"/><path d="M103 240h21v5h-21v-5z" fill="#F6F9FC"/><path fill-rule="evenodd" clip-rule="evenodd" d="M104.313 240H103v5h1.313v-5zm18.375 0v5H124v-5h-1.313z" fill="#EAEEF3"/><path fill-rule="evenodd" clip-rule="evenodd" d="M103 245h21v2.5c0 1.39-1.172 2.5-2.617 2.5h-15.766c-1.443 0-2.617-1.12-2.617-2.5V245z" fill="#24B47E"/><path fill="#E25950" d="M103 240h21v1.25h-21zm0 3.75h21V245h-21z"/><g data-name="Layer 2"><g data-name="Layer 1"><path d="M135.995 235a1.997 1.997 0 00-1.995 2.005V240h21v-2.995a2.006 2.006 0 00-1.995-2.005z" fill="#fcd669"/><path d="M134 245v2.995a2.006 2.006 0 001.995 2.005h17.01a1.997 1.997 0 001.995-2.005V245z" fill="#e25950"/><path fill="#43458b" d="M134 240h21v6h-21z"/><path d="M140 244.5a.5.5 0 11.5.5.5.5 0 01-.5-.5zm1-2a.5.5 0 11.5.5.5.5 0 01-.5-.5zm3-1a.5.5 0 11.5.5.5.5 0 01-.5-.5zm3 1a.5.5 0 11.5.5.5.5 0 01-.5-.5zm1 2a.5.5 0 11.5.5.5.5 0 01-.5-.5z" fill="#fff"/></g></g><g data-name="Layer 2"><g data-name="Layer 1"><rect width="21" height="15" rx="2" ry="2" fill="#e25950" x="165" y="235"/><path d="M179.633 241l-2.625.006a.364.364 0 01-.347-.253l-.813-2.497a.364.364 0 00-.695 0l-.811 2.496a.364.364 0 01-.347.253h-2.626a.364.364 0 00-.215.661l2.124 1.544a.364.364 0 01.132.409l-.81 2.497a.364.364 0 00.562.41l2.124-1.426a.364.364 0 01.43 0l2.125 1.425a.364.364 0 00.563-.409l-.813-2.497a.364.364 0 01.132-.41l2.125-1.543a.364.364 0 00.134-.409.37.37 0 00-.35-.257z" fill="#fcd669"/></g></g><g data-name="Layer 2"><path d="M215 250h-11.098l8.66-15H215a2 2 0 012 2v11a2 2 0 01-2 2zm-14.562 0H198a2 2 0 01-2-2v-11a2 2 0 012-2h11.098z" data-name="Layer 1"/></g><g data-name="Layer 2"><g data-name="Layer 1"><path d="M228.995 235a1.997 1.997 0 00-1.995 2.005V240h21v-2.995a2.006 2.006 0 00-1.995-2.005z" fill="#e25950"/><path fill="#fff" d="M227 240h21v5h-21z"/><path data-name="Rectangle-34" d="M227 245v2.995a2.006 2.006 0 001.995 2.005h17.01a1.997 1.997 0 001.995-2.005V245z"/><path fill="#eaeef3" d="M227 240h1.001v5H227zm19.999 0H248v5h-1.001z"/></g></g><path fill="#f6f9fc" d="M261 235h18v15h-18z"/><path d="M268.24 239.25H279V237a2 2 0 00-2-2h-14.71z" fill="#e25950"/><path d="M262.29 250H277a2 2 0 002-2v-2.25h-10.76z" fill="#012b7f"/><path d="M279 245h-11l-7 5h-1a2 2 0 01-2-2v-11a2 2 0 012-2h1l7 5h11z" fill="#24b47e"/><path d="M258 247v-9l6.5 4.5-6.5 4.5z"/><path fill="#fcd669" d="M258.43 237.38l-.43-.29v.91l6.5 4.5-6.5 4.5v.91l.43-.29 6.5-4.5.89-.62-.89-.62-6.5-4.5z"/></svg>